<svg width="20" height="20" viewBox="0 0 20 20" fill="none" xmlns="http://www.w3.org/2000/svg">
<g clip-path="url(#clip0_923_1712)">
<path d="M6.02087 5.66667H8.46228C8.93047 5.66667 9.31645 5.28486 9.31645 4.8125V3.93359C9.31645 3.4654 8.93464 3.07943 8.46228 3.07943H6.02087C5.55268 3.07943 5.16671 3.46123 5.16671 3.93359V4.8125C5.16671 5.28473 5.54864 5.66667 6.02087 5.66667ZM5.87504 3.9375C5.87504 3.85838 5.93898 3.79167 6.02087 3.79167H8.46228C8.5414 3.79167 8.60811 3.85561 8.60811 3.9375V4.81641C8.60811 4.89552 8.54417 4.96224 8.46228 4.96224H6.02087C5.94176 4.96224 5.87504 4.8983 5.87504 4.81641V3.9375ZM6.02087 8.79167H8.46228C8.93047 8.79167 9.31645 8.40986 9.31645 7.9375V7.05859C9.31645 6.5904 8.93464 6.20443 8.46228 6.20443H6.02087C5.55268 6.20443 5.16671 6.58623 5.16671 7.05859V7.9375C5.16671 8.40973 5.54864 8.79167 6.02087 8.79167ZM5.87504 7.0625C5.87504 6.98338 5.93898 6.91667 6.02087 6.91667H8.46228C8.5414 6.91667 8.60811 6.98061 8.60811 7.0625V7.94141C8.60811 8.02052 8.54417 8.08724 8.46228 8.08724H6.02087C5.94176 8.08724 5.87504 8.0233 5.87504 7.94141V7.0625ZM10.7084 5.66667H13.1498C13.618 5.66667 14.0039 5.28486 14.0039 4.8125V3.93359C14.0039 3.4654 13.6221 3.07943 13.1498 3.07943H10.7084C10.2402 3.07943 9.85421 3.46123 9.85421 3.93359V4.8125C9.85421 5.28473 10.2361 5.66667 10.7084 5.66667ZM10.5625 3.9375C10.5625 3.85838 10.6265 3.79167 10.7084 3.79167H13.1498C13.2289 3.79167 13.2956 3.85561 13.2956 3.9375V4.81641C13.2956 4.89552 13.2317 4.96224 13.1498 4.96224H10.7084C10.6293 4.96224 10.5625 4.8983 10.5625 4.81641V3.9375ZM10.7084 8.79167H13.1498C13.618 8.79167 14.0039 8.40986 14.0039 7.9375V7.05859C14.0039 6.5904 13.6221 6.20443 13.1498 6.20443H10.7084C10.2402 6.20443 9.85421 6.58623 9.85421 7.05859V7.9375C9.85421 8.40973 10.2361 8.79167 10.7084 8.79167ZM10.5625 7.0625C10.5625 6.98338 10.6265 6.91667 10.7084 6.91667H13.1498C13.2289 6.91667 13.2956 6.98061 13.2956 7.0625V7.94141C13.2956 8.02052 13.2317 8.08724 13.1498 8.08724H10.7084C10.6293 8.08724 10.5625 8.0233 10.5625 7.94141V7.0625ZM6.02087 11.9167H8.46228C8.93047 11.9167 9.31645 11.5349 9.31645 11.0625V10.1836C9.31645 9.7154 8.93464 9.32943 8.46228 9.32943H6.02087C5.55268 9.32943 5.16671 9.71123 5.16671 10.1836V11.0625C5.16671 11.5347 5.54864 11.9167 6.02087 11.9167ZM5.87504 10.1875C5.87504 10.1084 5.93898 10.0417 6.02087 10.0417H8.46228C8.5414 10.0417 8.60811 10.1056 8.60811 10.1875V11.0664C8.60811 11.1455 8.54417 11.2122 8.46228 11.2122H6.02087C5.94176 11.2122 5.87504 11.1483 5.87504 11.0664V10.1875ZM10.7084 11.9167H13.1498C13.618 11.9167 14.0039 11.5349 14.0039 11.0625V10.1836C14.0039 9.7154 13.6221 9.32943 13.1498 9.32943H10.7084C10.2402 9.32943 9.85421 9.71123 9.85421 10.1836V11.0625C9.85421 11.5347 10.2361 11.9167 10.7084 11.9167ZM10.5625 10.1875C10.5625 10.1084 10.6265 10.0417 10.7084 10.0417H13.1498C13.2289 10.0417 13.2956 10.1056 13.2956 10.1875V11.0664C13.2956 11.1455 13.2317 11.2122 13.1498 11.2122H10.7084C10.6293 11.2122 10.5625 11.1483 10.5625 11.0664V10.1875Z" fill="black" stroke="black" stroke-width="0.0833333"/>
<mask id="path-2-outside-1_923_1712" maskUnits="userSpaceOnUse" x="-0.791626" y="-0.375" width="20" height="20" fill="black">
<rect fill="white" x="-0.791626" y="-0.375" width="20" height="20"/>
<path d="M18.3334 17.5547V9.94531C18.6967 9.81641 18.9584 9.46875 18.9584 9.0625C18.9584 8.54688 18.5365 8.125 18.0209 8.125H15.2084V2.5H15.5209C16.0365 2.5 16.4584 2.07812 16.4584 1.5625C16.4584 1.04688 16.0365 0.625 15.5209 0.625H3.64587C3.13025 0.625 2.70837 1.04688 2.70837 1.5625C2.70837 2.07812 3.13025 2.5 3.64587 2.5H3.95837V8.125H1.14587C0.630249 8.125 0.208374 8.54688 0.208374 9.0625C0.208374 9.46875 0.470093 9.81641 0.833374 9.94531V17.5547C0.470093 17.6836 0.208374 18.0312 0.208374 18.4375C0.208374 18.9531 0.630249 19.375 1.14587 19.375H18.0209C18.5365 19.375 18.9584 18.9531 18.9584 18.4375C18.9584 18.0312 18.6967 17.6836 18.3334 17.5547ZM15.2084 11.25H16.4584V11.875H15.2084V11.25ZM15.2084 13.75H16.4584V14.375H15.2084V13.75ZM15.2084 15H16.7709C16.9427 15 17.0834 14.8594 17.0834 14.6875V13.4375C17.0834 13.2656 16.9427 13.125 16.7709 13.125H15.2084V12.5H16.7709C16.9427 12.5 17.0834 12.3594 17.0834 12.1875V10.9375C17.0834 10.7656 16.9427 10.625 16.7709 10.625H15.2084V10H17.7084V17.5H15.2084V15ZM18.0209 8.75C18.1927 8.75 18.3334 8.89062 18.3334 9.0625C18.3334 9.23438 18.1927 9.375 18.0209 9.375H15.2084V8.75H18.0209ZM3.33337 1.5625C3.33337 1.39062 3.474 1.25 3.64587 1.25H15.5209C15.6927 1.25 15.8334 1.39062 15.8334 1.5625C15.8334 1.73438 15.6927 1.875 15.5209 1.875H14.8959H4.27087H3.64587C3.474 1.875 3.33337 1.73438 3.33337 1.5625ZM14.5834 2.5V8.4375V9.6875V10.9375V12.1875V13.4375V14.6875V17.5H12.3959V15.5078C12.3959 14.3672 11.4662 13.4375 10.3256 13.4375H9.58337H8.84119C7.70056 13.4375 6.77087 14.3672 6.77087 15.5078V17.5H4.58337V14.6875V13.4375V12.1875V10.9375V9.6875V8.4375V2.5H14.5834ZM7.39587 17.5V15.5078C7.39587 14.7109 8.04431 14.0625 8.84119 14.0625H9.27087V15.3125H8.95837C8.7865 15.3125 8.64587 15.4531 8.64587 15.625C8.64587 15.7969 8.7865 15.9375 8.95837 15.9375H9.27087V17.5H7.39587ZM9.89587 15.9375H10.2084C10.3802 15.9375 10.5209 15.7969 10.5209 15.625C10.5209 15.4531 10.3802 15.3125 10.2084 15.3125H9.89587V14.0625H10.3256C11.1224 14.0625 11.7709 14.7109 11.7709 15.5078V17.5H9.89587V15.9375ZM1.45837 17.5V10H3.95837V10.625H2.39587C2.224 10.625 2.08337 10.7656 2.08337 10.9375V12.1875C2.08337 12.3594 2.224 12.5 2.39587 12.5H3.95837V13.125H2.39587C2.224 13.125 2.08337 13.2656 2.08337 13.4375V14.6875C2.08337 14.8594 2.224 15 2.39587 15H3.95837V17.5H1.45837ZM3.95837 14.375H2.70837V13.75H3.95837V14.375ZM3.95837 11.875H2.70837V11.25H3.95837V11.875ZM1.14587 8.75H3.95837V9.375H1.14587C0.973999 9.375 0.833374 9.23438 0.833374 9.0625C0.833374 8.89062 0.973999 8.75 1.14587 8.75ZM18.0209 18.75H1.14587C0.973999 18.75 0.833374 18.6094 0.833374 18.4375C0.833374 18.2656 0.973999 18.125 1.14587 18.125H4.27087H7.08337H9.58337H12.0834H14.8959H18.0209C18.1927 18.125 18.3334 18.2656 18.3334 18.4375C18.3334 18.6094 18.1927 18.75 18.0209 18.75Z"/>
</mask>
<path d="M18.3334 17.5547V9.94531C18.6967 9.81641 18.9584 9.46875 18.9584 9.0625C18.9584 8.54688 18.5365 8.125 18.0209 8.125H15.2084V2.5H15.5209C16.0365 2.5 16.4584 2.07812 16.4584 1.5625C16.4584 1.04688 16.0365 0.625 15.5209 0.625H3.64587C3.13025 0.625 2.70837 1.04688 2.70837 1.5625C2.70837 2.07812 3.13025 2.5 3.64587 2.5H3.95837V8.125H1.14587C0.630249 8.125 0.208374 8.54688 0.208374 9.0625C0.208374 9.46875 0.470093 9.81641 0.833374 9.94531V17.5547C0.470093 17.6836 0.208374 18.0312 0.208374 18.4375C0.208374 18.9531 0.630249 19.375 1.14587 19.375H18.0209C18.5365 19.375 18.9584 18.9531 18.9584 18.4375C18.9584 18.0312 18.6967 17.6836 18.3334 17.5547ZM15.2084 11.25H16.4584V11.875H15.2084V11.25ZM15.2084 13.75H16.4584V14.375H15.2084V13.75ZM15.2084 15H16.7709C16.9427 15 17.0834 14.8594 17.0834 14.6875V13.4375C17.0834 13.2656 16.9427 13.125 16.7709 13.125H15.2084V12.5H16.7709C16.9427 12.5 17.0834 12.3594 17.0834 12.1875V10.9375C17.0834 10.7656 16.9427 10.625 16.7709 10.625H15.2084V10H17.7084V17.5H15.2084V15ZM18.0209 8.75C18.1927 8.75 18.3334 8.89062 18.3334 9.0625C18.3334 9.23438 18.1927 9.375 18.0209 9.375H15.2084V8.75H18.0209ZM3.33337 1.5625C3.33337 1.39062 3.474 1.25 3.64587 1.25H15.5209C15.6927 1.25 15.8334 1.39062 15.8334 1.5625C15.8334 1.73438 15.6927 1.875 15.5209 1.875H14.8959H4.27087H3.64587C3.474 1.875 3.33337 1.73438 3.33337 1.5625ZM14.5834 2.5V8.4375V9.6875V10.9375V12.1875V13.4375V14.6875V17.5H12.3959V15.5078C12.3959 14.3672 11.4662 13.4375 10.3256 13.4375H9.58337H8.84119C7.70056 13.4375 6.77087 14.3672 6.77087 15.5078V17.5H4.58337V14.6875V13.4375V12.1875V10.9375V9.6875V8.4375V2.5H14.5834ZM7.39587 17.5V15.5078C7.39587 14.7109 8.04431 14.0625 8.84119 14.0625H9.27087V15.3125H8.95837C8.7865 15.3125 8.64587 15.4531 8.64587 15.625C8.64587 15.7969 8.7865 15.9375 8.95837 15.9375H9.27087V17.5H7.39587ZM9.89587 15.9375H10.2084C10.3802 15.9375 10.5209 15.7969 10.5209 15.625C10.5209 15.4531 10.3802 15.3125 10.2084 15.3125H9.89587V14.0625H10.3256C11.1224 14.0625 11.7709 14.7109 11.7709 15.5078V17.5H9.89587V15.9375ZM1.45837 17.5V10H3.95837V10.625H2.39587C2.224 10.625 2.08337 10.7656 2.08337 10.9375V12.1875C2.08337 12.3594 2.224 12.5 2.39587 12.5H3.95837V13.125H2.39587C2.224 13.125 2.08337 13.2656 2.08337 13.4375V14.6875C2.08337 14.8594 2.224 15 2.39587 15H3.95837V17.5H1.45837ZM3.95837 14.375H2.70837V13.75H3.95837V14.375ZM3.95837 11.875H2.70837V11.25H3.95837V11.875ZM1.14587 8.75H3.95837V9.375H1.14587C0.973999 9.375 0.833374 9.23438 0.833374 9.0625C0.833374 8.89062 0.973999 8.75 1.14587 8.75ZM18.0209 18.75H1.14587C0.973999 18.75 0.833374 18.6094 0.833374 18.4375C0.833374 18.2656 0.973999 18.125 1.14587 18.125H4.27087H7.08337H9.58337H12.0834H14.8959H18.0209C18.1927 18.125 18.3334 18.2656 18.3334 18.4375C18.3334 18.6094 18.1927 18.75 18.0209 18.75Z" fill="black"/>
<path d="M18.3334 17.5547V9.94531C18.6967 9.81641 18.9584 9.46875 18.9584 9.0625C18.9584 8.54688 18.5365 8.125 18.0209 8.125H15.2084V2.5H15.5209C16.0365 2.5 16.4584 2.07812 16.4584 1.5625C16.4584 1.04688 16.0365 0.625 15.5209 0.625H3.64587C3.13025 0.625 2.70837 1.04688 2.70837 1.5625C2.70837 2.07812 3.13025 2.5 3.64587 2.5H3.95837V8.125H1.14587C0.630249 8.125 0.208374 8.54688 0.208374 9.0625C0.208374 9.46875 0.470093 9.81641 0.833374 9.94531V17.5547C0.470093 17.6836 0.208374 18.0312 0.208374 18.4375C0.208374 18.9531 0.630249 19.375 1.14587 19.375H18.0209C18.5365 19.375 18.9584 18.9531 18.9584 18.4375C18.9584 18.0312 18.6967 17.6836 18.3334 17.5547ZM15.2084 11.25H16.4584V11.875H15.2084V11.25ZM15.2084 13.75H16.4584V14.375H15.2084V13.75ZM15.2084 15H16.7709C16.9427 15 17.0834 14.8594 17.0834 14.6875V13.4375C17.0834 13.2656 16.9427 13.125 16.7709 13.125H15.2084V12.5H16.7709C16.9427 12.5 17.0834 12.3594 17.0834 12.1875V10.9375C17.0834 10.7656 16.9427 10.625 16.7709 10.625H15.2084V10H17.7084V17.5H15.2084V15ZM18.0209 8.75C18.1927 8.75 18.3334 8.89062 18.3334 9.0625C18.3334 9.23438 18.1927 9.375 18.0209 9.375H15.2084V8.75H18.0209ZM3.33337 1.5625C3.33337 1.39062 3.474 1.25 3.64587 1.25H15.5209C15.6927 1.25 15.8334 1.39062 15.8334 1.5625C15.8334 1.73438 15.6927 1.875 15.5209 1.875H14.8959H4.27087H3.64587C3.474 1.875 3.33337 1.73438 3.33337 1.5625ZM14.5834 2.5V8.4375V9.6875V10.9375V12.1875V13.4375V14.6875V17.5H12.3959V15.5078C12.3959 14.3672 11.4662 13.4375 10.3256 13.4375H9.58337H8.84119C7.70056 13.4375 6.77087 14.3672 6.77087 15.5078V17.5H4.58337V14.6875V13.4375V12.1875V10.9375V9.6875V8.4375V2.5H14.5834ZM7.39587 17.5V15.5078C7.39587 14.7109 8.04431 14.0625 8.84119 14.0625H9.27087V15.3125H8.95837C8.7865 15.3125 8.64587 15.4531 8.64587 15.625C8.64587 15.7969 8.7865 15.9375 8.95837 15.9375H9.27087V17.5H7.39587ZM9.89587 15.9375H10.2084C10.3802 15.9375 10.5209 15.7969 10.5209 15.625C10.5209 15.4531 10.3802 15.3125 10.2084 15.3125H9.89587V14.0625H10.3256C11.1224 14.0625 11.7709 14.7109 11.7709 15.5078V17.5H9.89587V15.9375ZM1.45837 17.5V10H3.95837V10.625H2.39587C2.224 10.625 2.08337 10.7656 2.08337 10.9375V12.1875C2.08337 12.3594 2.224 12.5 2.39587 12.5H3.95837V13.125H2.39587C2.224 13.125 2.08337 13.2656 2.08337 13.4375V14.6875C2.08337 14.8594 2.224 15 2.39587 15H3.95837V17.5H1.45837ZM3.95837 14.375H2.70837V13.75H3.95837V14.375ZM3.95837 11.875H2.70837V11.25H3.95837V11.875ZM1.14587 8.75H3.95837V9.375H1.14587C0.973999 9.375 0.833374 9.23438 0.833374 9.0625C0.833374 8.89062 0.973999 8.75 1.14587 8.75ZM18.0209 18.75H1.14587C0.973999 18.75 0.833374 18.6094 0.833374 18.4375C0.833374 18.2656 0.973999 18.125 1.14587 18.125H4.27087H7.08337H9.58337H12.0834H14.8959H18.0209C18.1927 18.125 18.3334 18.2656 18.3334 18.4375C18.3334 18.6094 18.1927 18.75 18.0209 18.75Z" stroke="black" stroke-width="0.166667" mask="url(#path-2-outside-1_923_1712)"/>
</g>
<defs>
<clipPath id="clip0_923_1712">
<rect width="20" height="20" fill="white"/>
</clipPath>
</defs>
</svg>
