<svg width="9" height="5" viewBox="0 0 9 5" fill="none" xmlns="http://www.w3.org/2000/svg">
<path d="M7.89726 0.873577L4.45976 4.31108C4.41185 4.35915 4.35493 4.39729 4.29226 4.42331C4.22958 4.44934 4.16239 4.46273 4.09452 4.46273C4.02666 4.46273 3.95946 4.44934 3.89679 4.42331C3.83411 4.39729 3.77719 4.35915 3.72929 4.31108L0.291788 0.873577C0.194922 0.776711 0.140503 0.645333 0.140503 0.508343C0.140503 0.371354 0.194922 0.239975 0.291788 0.143109C0.388654 0.0462426 0.520033 -0.00817618 0.657022 -0.00817618C0.794012 -0.00817618 0.925391 0.0462426 1.02226 0.143109L4.09495 3.2158L7.16765 0.142679C7.26451 0.0458131 7.39589 -0.00860596 7.53288 -0.00860596C7.66987 -0.00860596 7.80125 0.0458131 7.89812 0.142679C7.99498 0.239545 8.0494 0.370924 8.0494 0.507914C8.0494 0.644903 7.99498 0.776282 7.89812 0.873148L7.89726 0.873577Z" fill="black"/>
</svg>
