
<svg width="24" height="24" viewBox="0 0 24 24" fill="none" xmlns="http://www.w3.org/2000/svg">
<path d="M1.5 21.193C2.185 22.244 3.071 22.244 3.773 21.193C6.03 17.741 8.18 23.676 9.773 21.233C12.203 17.569 13.951 23.922 15.773 21.193C18.149 17.558 19.63 23.578 21.5 21.584M3.072 17L1.575 12.646C1.304 11.857 1.803 11 2.533 11H20.358C23.452 11 19.494 17 17.497 17M17.5 11L14.701 7.501C14.3263 7.03267 13.851 6.65461 13.3105 6.39479C12.7699 6.13497 12.1778 6.00004 11.578 6H7.5C6.96957 6 6.46086 6.21071 6.08579 6.58579C5.71071 6.96086 5.5 7.46957 5.5 8V11M9.5 6V3C9.5 2.73478 9.39464 2.48043 9.20711 2.29289C9.01957 2.10536 8.76522 2 8.5 2H7.5" stroke="black" stroke-width="1.5" stroke-linecap="round" stroke-linejoin="round"/>

<svg width="19" height="18" viewBox="0 0 19 18" fill="none" xmlns="http://www.w3.org/2000/svg">
<path d="M1.25 16.6602C1.82083 17.536 2.55917 17.536 3.14417 16.6602C5.025 13.7835 6.81667 18.7293 8.14417 16.6935C10.1692 13.6402 11.6258 18.9344 13.1442 16.6602C15.1242 13.631 16.3583 18.6477 17.9167 16.986M2.56 13.166L1.3125 9.53768C1.08667 8.88018 1.5025 8.16602 2.11083 8.16602H16.965C19.5433 8.16602 16.245 13.166 14.5808 13.166M14.5833 8.16602L12.2508 5.25018C11.9386 4.85991 11.5425 4.54486 11.0921 4.32834C10.6416 4.11182 10.1482 3.99939 9.64833 3.99935H6.25C5.80797 3.99935 5.38405 4.17494 5.07149 4.4875C4.75893 4.80007 4.58333 5.22399 4.58333 5.66602V8.16602M7.91667 3.99935V1.49935C7.91667 1.27834 7.82887 1.06637 7.67259 0.910093C7.51631 0.753813 7.30435 0.666016 7.08333 0.666016H6.25" stroke="black" stroke-width="1.25" stroke-linecap="round" stroke-linejoin="round"/>

</svg>
