<svg width="16" height="18" viewBox="0 0 16 18" fill="none" xmlns="http://www.w3.org/2000/svg">
<path d="M14.25 2.1875H12.6875V1.875C12.6875 1.62636 12.5887 1.3879 12.4129 1.21209C12.2371 1.03627 11.9986 0.9375 11.75 0.9375C11.5014 0.9375 11.2629 1.03627 11.0871 1.21209C10.9113 1.3879 10.8125 1.62636 10.8125 1.875V2.1875H5.1875V1.875C5.1875 1.62636 5.08873 1.3879 4.91291 1.21209C4.7371 1.03627 4.49864 0.9375 4.25 0.9375C4.00136 0.9375 3.7629 1.03627 3.58709 1.21209C3.41127 1.3879 3.3125 1.62636 3.3125 1.875V2.1875H1.75C1.3356 2.1875 0.938171 2.35212 0.645146 2.64515C0.35212 2.93817 0.1875 3.3356 0.1875 3.75V16.25C0.1875 16.6644 0.35212 17.0618 0.645146 17.3549C0.938171 17.6479 1.3356 17.8125 1.75 17.8125H14.25C14.6644 17.8125 15.0618 17.6479 15.3549 17.3549C15.6479 17.0618 15.8125 16.6644 15.8125 16.25V3.75C15.8125 3.3356 15.6479 2.93817 15.3549 2.64515C15.0618 2.35212 14.6644 2.1875 14.25 2.1875ZM3.3125 4.0625C3.3125 4.31114 3.41127 4.5496 3.58709 4.72541C3.7629 4.90123 4.00136 5 4.25 5C4.49864 5 4.7371 4.90123 4.91291 4.72541C5.08873 4.5496 5.1875 4.31114 5.1875 4.0625H10.8125C10.8125 4.31114 10.9113 4.5496 11.0871 4.72541C11.2629 4.90123 11.5014 5 11.75 5C11.9986 5 12.2371 4.90123 12.4129 4.72541C12.5887 4.5496 12.6875 4.31114 12.6875 4.0625H13.9375V5.9375H2.0625V4.0625H3.3125ZM2.0625 15.9375V7.8125H13.9375V15.9375H2.0625ZM9.25 10C9.25 10.2472 9.17669 10.4889 9.03934 10.6945C8.90199 10.9 8.70676 11.0602 8.47835 11.1549C8.24995 11.2495 7.99861 11.2742 7.75614 11.226C7.51366 11.1778 7.29093 11.0587 7.11612 10.8839C6.9413 10.7091 6.82225 10.4863 6.77402 10.2439C6.72579 10.0014 6.75054 9.75005 6.84515 9.52165C6.93976 9.29324 7.09998 9.09801 7.30554 8.96066C7.5111 8.82331 7.75277 8.75 8 8.75C8.33152 8.75 8.64946 8.8817 8.88388 9.11612C9.1183 9.35054 9.25 9.66848 9.25 10ZM13 10C13 10.2472 12.9267 10.4889 12.7893 10.6945C12.652 10.9 12.4568 11.0602 12.2284 11.1549C11.9999 11.2495 11.7486 11.2742 11.5061 11.226C11.2637 11.1778 11.0409 11.0587 10.8661 10.8839C10.6913 10.7091 10.5722 10.4863 10.524 10.2439C10.4758 10.0014 10.5005 9.75005 10.5951 9.52165C10.6898 9.29324 10.85 9.09801 11.0555 8.96066C11.2611 8.82331 11.5028 8.75 11.75 8.75C12.0815 8.75 12.3995 8.8817 12.6339 9.11612C12.8683 9.35054 13 9.66848 13 10ZM5.5 13.75C5.5 13.9972 5.42669 14.2389 5.28934 14.4445C5.15199 14.65 4.95676 14.8102 4.72835 14.9049C4.49995 14.9995 4.24861 15.0242 4.00614 14.976C3.76366 14.9278 3.54093 14.8087 3.36612 14.6339C3.1913 14.4591 3.07225 14.2363 3.02402 13.9939C2.97579 13.7514 3.00054 13.5001 3.09515 13.2716C3.18976 13.0432 3.34998 12.848 3.55554 12.7107C3.7611 12.5733 4.00277 12.5 4.25 12.5C4.58152 12.5 4.89946 12.6317 5.13388 12.8661C5.3683 13.1005 5.5 13.4185 5.5 13.75ZM9.25 13.75C9.25 13.9972 9.17669 14.2389 9.03934 14.4445C8.90199 14.65 8.70676 14.8102 8.47835 14.9049C8.24995 14.9995 7.99861 15.0242 7.75614 14.976C7.51366 14.9278 7.29093 14.8087 7.11612 14.6339C6.9413 14.4591 6.82225 14.2363 6.77402 13.9939C6.72579 13.7514 6.75054 13.5001 6.84515 13.2716C6.93976 13.0432 7.09998 12.848 7.30554 12.7107C7.5111 12.5733 7.75277 12.5 8 12.5C8.33152 12.5 8.64946 12.6317 8.88388 12.8661C9.1183 13.1005 9.25 13.4185 9.25 13.75ZM13 13.75C13 13.9972 12.9267 14.2389 12.7893 14.4445C12.652 14.65 12.4568 14.8102 12.2284 14.9049C11.9999 14.9995 11.7486 15.0242 11.5061 14.976C11.2637 14.9278 11.0409 14.8087 10.8661 14.6339C10.6913 14.4591 10.5722 14.2363 10.524 13.9939C10.4758 13.7514 10.5005 13.5001 10.5951 13.2716C10.6898 13.0432 10.85 12.848 11.0555 12.7107C11.2611 12.5733 11.5028 12.5 11.75 12.5C12.0815 12.5 12.3995 12.6317 12.6339 12.8661C12.8683 13.1005 13 13.4185 13 13.75Z" fill="black"/>
</svg>
