<svg width="24" height="24" viewBox="0 0 24 24" fill="none" xmlns="http://www.w3.org/2000/svg">
<path d="M2 12L4 13M21 12.5L19 13M7.5 17.5L7.746 16.886C8.111 15.973 8.294 15.516 8.675 15.258C9.055 15 9.547 15 10.531 15H12.469C13.453 15 13.945 15 14.325 15.258C14.705 15.516 14.889 15.973 15.255 16.886L15.5 17.5M1.5 17V19.882C1.5 20.261 1.74 20.607 2.122 20.776C2.369 20.886 2.605 21 2.891 21H4.609C4.895 21 5.131 20.886 5.379 20.776C5.759 20.607 6 20.261 6 19.882V18M17 18V19.882C17 20.261 17.24 20.607 17.622 20.776C17.869 20.886 18.105 21 18.391 21H20.109C20.395 21 20.631 20.886 20.879 20.776C21.259 20.607 21.5 20.261 21.5 19.882V17M19.5 8.5L20.5 8M3.5 8.5L2.5 8M4 9L5.088 5.735C5.528 4.415 5.748 3.755 6.272 3.378C6.796 3.001 7.492 3 8.883 3H14.117C15.508 3 16.204 3 16.727 3.378C17.252 3.755 17.472 4.415 17.912 5.735L19 9" stroke="#898A8D" stroke-width="1.5" stroke-linecap="round" stroke-linejoin="round"/>
<path d="M4 9H19C19.957 10.014 21.5 11.425 21.5 13V16.47C21.5 17.04 21.12 17.52 20.617 17.587L17.5 18H5.5L2.383 17.587C1.88 17.522 1.5 17.042 1.5 16.47V13C1.5 11.425 3.043 10.014 4 9Z" stroke="#898A8D" stroke-width="1.5" stroke-linecap="round" stroke-linejoin="round"/>
</svg>
