<svg width="25" height="25" viewBox="0 0 25 25" fill="none" xmlns="http://www.w3.org/2000/svg">
<rect x="0.837402" y="0.837402" width="23" height="23" rx="11.5" fill="white"/>
<rect x="0.837402" y="0.837402" width="23" height="23" rx="11.5" stroke="#DDDDDD"/>
<path d="M17.1909 16.4837C17.2374 16.5301 17.2742 16.5853 17.2994 16.646C17.3245 16.7067 17.3375 16.7717 17.3375 16.8374C17.3375 16.9031 17.3245 16.9682 17.2994 17.0289C17.2742 17.0896 17.2374 17.1447 17.1909 17.1912C17.1445 17.2376 17.0893 17.2745 17.0286 17.2996C16.9679 17.3248 16.9029 17.3377 16.8372 17.3377C16.7715 17.3377 16.7064 17.3248 16.6457 17.2996C16.585 17.2745 16.5299 17.2376 16.4834 17.1912L12.3372 13.0443L8.19094 17.1912C8.09712 17.285 7.96987 17.3377 7.83719 17.3377C7.70451 17.3377 7.57726 17.285 7.48344 17.1912C7.38962 17.0974 7.33691 16.9701 7.33691 16.8374C7.33691 16.7048 7.38962 16.5775 7.48344 16.4837L11.6303 12.3374L7.48344 8.19119C7.38962 8.09737 7.33691 7.97012 7.33691 7.83744C7.33691 7.70475 7.38962 7.57751 7.48344 7.48369C7.57726 7.38987 7.70451 7.33716 7.83719 7.33716C7.96987 7.33716 8.09712 7.38987 8.19094 7.48369L12.3372 11.6306L16.4834 7.48369C16.5773 7.38987 16.7045 7.33716 16.8372 7.33716C16.9699 7.33716 17.0971 7.38987 17.1909 7.48369C17.2848 7.57751 17.3375 7.70475 17.3375 7.83744C17.3375 7.97012 17.2848 8.09737 17.1909 8.19119L13.0441 12.3374L17.1909 16.4837Z" fill="black"/>
</svg>
