<svg width="29" height="28" viewBox="0 0 29 28" fill="none" xmlns="http://www.w3.org/2000/svg">
<path fill-rule="evenodd" clip-rule="evenodd" d="M4.25 2C3.2835 2 2.5 2.7835 2.5 3.75V24.25C2.5 25.2165 3.2835 26 4.25 26H7.25C8.2165 26 9 25.2165 9 24.25V24H24.25H26.25V22.5H25V5H26.25V3.5H24.25H10.4823C10.361 2.65193 9.63162 2 8.75 2H4.25ZM23.5 19.9041V22.5H9V20.625L9.56798 20.199C9.99196 19.881 10.5704 19.865 11.0114 20.159L11.8055 20.6884C12.6722 21.2662 13.7909 21.3047 14.6953 20.7879L16.0489 20.0144C16.46 19.7795 16.9685 19.7971 17.3624 20.0597L18.4181 20.7635C19.2022 21.2862 20.1993 21.371 21.0604 20.9883L23.5 19.9041ZM23.5 16.4041V18.2626L20.4512 19.6176C20.0598 19.7916 19.6066 19.753 19.2502 19.5154L18.1945 18.8116C17.3278 18.2338 16.2091 18.1953 15.3047 18.7121L13.9511 19.4856C13.54 19.7205 13.0315 19.7029 12.6376 19.4403L11.8434 18.9109C10.9821 18.3367 9.88241 18.3001 8.99377 18.7887C8.96996 18.3239 8.87805 17.8671 8.7226 17.4324L9.57655 16.7492C10.0016 16.4092 10.5979 16.3833 11.0508 16.6853L11.8055 17.1884C12.6722 17.7662 13.7909 17.8047 14.6953 17.2879L16.0489 16.5144C16.46 16.2795 16.9685 16.2971 17.3624 16.5597L18.4181 17.2635C19.2022 17.7862 20.1993 17.871 21.0604 17.4883L23.5 16.4041ZM23.5 5V14.7626L20.4512 16.1176C20.0598 16.2916 19.6066 16.253 19.2502 16.0154L18.1945 15.3116C17.3278 14.7338 16.2091 14.6953 15.3047 15.2121L13.9511 15.9856C13.54 16.2205 13.0315 16.2029 12.6376 15.9403L11.8828 15.4372C10.8864 14.7729 9.57465 14.8298 8.63951 15.5779L7.99085 16.0968L6.70812 14.301L9.30019 11.3849C10.0731 10.5154 10.5 9.39254 10.5 8.2292V5H23.5ZM8.17908 10.3884L5.4132 13.5H4V3.75C4 3.61193 4.11193 3.5 4.25 3.5H8.75C8.88807 3.5 9 3.61193 9 3.75V8.2292C9 9.02517 8.70789 9.79347 8.17908 10.3884ZM4 24.25V15H5.36404L6.89463 17.1428C7.28835 17.694 7.5 18.3545 7.5 19.0319V24.25C7.5 24.3881 7.38807 24.5 7.25 24.5H4.25C4.11193 24.5 4 24.3881 4 24.25ZM18.75 12.25C20.1307 12.25 21.25 11.1307 21.25 9.75C21.25 8.36929 20.1307 7.25 18.75 7.25C17.3693 7.25 16.25 8.36929 16.25 9.75C16.25 11.1307 17.3693 12.25 18.75 12.25ZM19.75 9.75C19.75 10.3023 19.3023 10.75 18.75 10.75C18.1977 10.75 17.75 10.3023 17.75 9.75C17.75 9.19772 18.1977 8.75 18.75 8.75C19.3023 8.75 19.75 9.19772 19.75 9.75Z" fill="#898A8D"/>
</svg>
