<svg width="28" height="28" viewBox="0 0 28 28" fill="none" xmlns="http://www.w3.org/2000/svg">
<path fill-rule="evenodd" clip-rule="evenodd" d="M7.95885 5.38637C10.1143 3.05778 13.5083 1.03513 18.2212 2.49183C22.9075 3.94028 24.7931 7.46922 25.4937 10.5512C25.8425 12.0853 25.9038 13.5233 25.8794 14.5738C25.8671 15.1005 25.8333 15.5338 25.802 15.8379C25.7864 15.9901 25.7714 16.1103 25.7601 16.194C25.7544 16.2358 25.7496 16.2686 25.7461 16.2917L25.7419 16.3191L25.7406 16.3273L25.7402 16.3299L25.74 16.3309C25.74 16.3313 25.7399 16.3317 24.9999 16.2097C24.8019 16.9331 24.8018 16.933 24.8016 16.933L24.801 16.9328L24.7983 16.9321L24.7877 16.9292L24.7457 16.9177L24.582 16.8728L23.9612 16.7026C23.4263 16.5559 22.6624 16.3461 21.7458 16.094C20.0693 15.6327 17.8819 15.0295 15.6522 14.4107L12.7222 24.91L12.5206 25.6324L11.0758 25.2292L11.2774 24.5068L14.207 14.009C12.0459 13.4074 9.939 12.8164 8.31565 12.3517C7.40214 12.0903 6.63839 11.8678 6.10342 11.7057C5.83719 11.625 5.62099 11.5573 5.46949 11.5062C5.39622 11.4815 5.32485 11.4562 5.26706 11.4326C5.24279 11.4227 5.19443 11.4025 5.14388 11.3741C5.12505 11.3635 5.06058 11.3272 4.99315 11.2649C4.96128 11.2355 4.88811 11.1638 4.83034 11.0492C4.76707 10.9236 4.69901 10.6916 4.80384 10.4304C4.78864 10.4682 4.83731 10.3444 4.85909 10.2905C4.89443 10.2032 4.94485 10.082 5.01068 9.93263C5.14225 9.63412 5.33567 9.22238 5.59374 8.74256C6.10819 7.78604 6.88788 6.54337 7.95885 5.38637ZM24.9999 16.2097L25.7399 16.3317L25.6045 17.1528L24.8019 16.9331L24.9999 16.2097ZM16.0554 12.9659C17.1687 13.2749 18.2715 13.58 19.3054 13.8654C19.7752 11.5983 19.9823 10.0069 19.8164 8.64672C19.6671 7.42324 19.2085 6.33925 18.2515 5.09667L16.0554 12.9659ZM22.1437 14.6477C21.7118 14.5289 21.246 14.4006 20.7543 14.2651C21.2397 11.94 21.506 10.1098 21.3054 8.46509C21.1483 7.17741 20.7108 6.03929 19.9413 4.88017C22.4079 6.36494 23.5337 8.6958 24.031 10.8837C24.3448 12.2637 24.4023 13.5719 24.3798 14.539C24.3736 14.8062 24.3613 15.0461 24.3469 15.253C23.8129 15.1065 23.0535 14.898 22.1437 14.6477ZM18.5075 4.17908L18.5262 4.18638L18.4992 4.20884L18.5075 4.17908ZM11.8522 6.70529C12.6441 5.3477 13.7942 4.29405 15.6917 3.5223C12.7811 3.31586 10.6136 4.72653 9.05964 6.40532C7.76067 7.80864 6.92463 9.37047 6.50894 10.2612L6.53847 10.2702C7.0619 10.4288 7.81655 10.6486 8.72841 10.9096C9.17068 11.0362 9.64913 11.1723 10.155 11.3154C10.2299 11.0691 10.3016 10.8286 10.3723 10.5909L10.3724 10.5907L10.3724 10.5905L10.3725 10.5905L10.3725 10.5905L10.3725 10.5904C10.493 10.1858 10.611 9.7896 10.7381 9.38802C11.0396 8.4359 11.372 7.52846 11.8522 6.70529ZM13.1478 7.4611C13.8107 6.32473 14.8086 5.3967 16.803 4.70655L14.6102 12.5642C13.5778 12.2768 12.5585 11.992 11.5988 11.7224C11.6772 11.4646 11.7526 11.212 11.8256 10.9672L11.8257 10.9669C11.9453 10.5662 12.0586 10.1867 12.1681 9.84086C12.4604 8.91799 12.753 8.13793 13.1478 7.4611ZM5.5 25.2082C7.433 25.2082 9 23.6412 9 21.7082C9 19.7752 7.433 18.2082 5.5 18.2082C3.567 18.2082 2 19.7752 2 21.7082C2 23.6412 3.567 25.2082 5.5 25.2082ZM7.5 21.7082C7.5 22.8128 6.60457 23.7082 5.5 23.7082C4.39543 23.7082 3.5 22.8128 3.5 21.7082C3.5 20.6036 4.39543 19.7082 5.5 19.7082C6.60457 19.7082 7.5 20.6036 7.5 21.7082Z" fill="#898A8D"/>
</svg>
