<svg width="13" height="13" viewBox="0 0 13 13" fill="none" xmlns="http://www.w3.org/2000/svg">
<path d="M12.2075 3.58563L9.41438 0.793127C9.32152 0.700244 9.21127 0.626564 9.08993 0.576295C8.96859 0.526026 8.83853 0.500153 8.70719 0.500153C8.57585 0.500153 8.4458 0.526026 8.32446 0.576295C8.20312 0.626564 8.09287 0.700244 8 0.793127L0.29313 8.5C0.199867 8.59252 0.125926 8.70266 0.0756045 8.82401C0.025283 8.94536 -0.000414649 9.07551 5.05934e-06 9.20688V12C5.05934e-06 12.2652 0.105362 12.5196 0.292898 12.7071C0.480435 12.8946 0.734788 13 1 13H11.5C11.6326 13 11.7598 12.9473 11.8536 12.8536C11.9473 12.7598 12 12.6326 12 12.5C12 12.3674 11.9473 12.2402 11.8536 12.1464C11.7598 12.0527 11.6326 12 11.5 12H5.2075L12.2075 5C12.3004 4.90714 12.3741 4.79689 12.4243 4.67555C12.4746 4.55421 12.5005 4.42416 12.5005 4.29281C12.5005 4.16147 12.4746 4.03142 12.4243 3.91008C12.3741 3.78874 12.3004 3.67849 12.2075 3.58563ZM10 5.79313L7.20751 3L8.7075 1.5L11.5 4.29313L10 5.79313Z" fill="black"/>
</svg>
