
<svg width="24" height="24" viewBox="0 0 24 24" fill="none" xmlns="http://www.w3.org/2000/svg">
<path d="M20.75 5V13.75H19.25V5C19.25 4.311 18.689 3.75 18 3.75H6C5.311 3.75 4.75 4.311 4.75 5V13.75H3.25V5C3.25 3.483 4.483 2.25 6 2.25H18C19.517 2.25 20.75 3.483 20.75 5ZM15 5.25H9C8.586 5.25 8.25 5.586 8.25 6C8.25 6.414 8.586 6.75 9 6.75H15C15.414 6.75 15.75 6.414 15.75 6C15.75 5.586 15.414 5.25 15 5.25Z" fill="#898A8D"/>
<path d="M21.5301 18.488C21.2131 17.43 20.5741 16.52 19.7221 15.859C20.3511 15.266 20.7501 14.431 20.7501 13.5C20.7501 11.708 19.2921 10.25 17.5001 10.25C16.7731 10.25 16.1091 10.498 15.5671 10.903C15.0941 9.373 13.6831 8.25 12.0001 8.25C10.3171 8.25 8.90607 9.372 8.43307 10.903C7.89107 10.499 7.22707 10.25 6.50007 10.25C4.70807 10.25 3.25007 11.708 3.25007 13.5C3.25007 14.431 3.64907 15.266 4.27807 15.859C3.42607 16.52 2.78707 17.43 2.47007 18.488C2.31007 19.026 2.41007 19.592 2.74607 20.043C3.08007 20.492 3.59307 20.75 4.15107 20.75H5.51307C5.57307 20.874 5.64407 20.994 5.73407 21.104C6.07207 21.515 6.57107 21.75 7.10107 21.75H16.8981C17.4281 21.75 17.9271 21.515 18.2651 21.104C18.3551 20.995 18.4271 20.875 18.4861 20.75H19.8481C20.4071 20.75 20.9191 20.492 21.2531 20.043C21.5891 19.593 21.6901 19.026 21.5291 18.488H21.5301ZM17.5001 11.75C18.4651 11.75 19.2501 12.535 19.2501 13.5C19.2501 14.465 18.4651 15.25 17.5001 15.25C16.5351 15.25 15.7501 14.465 15.7501 13.5C15.7501 12.535 16.5351 11.75 17.5001 11.75ZM12.0001 9.75C13.2401 9.75 14.2501 10.76 14.2501 12C14.2501 13.24 13.2401 14.25 12.0001 14.25C10.7601 14.25 9.75007 13.24 9.75007 12C9.75007 10.76 10.7601 9.75 12.0001 9.75ZM6.50007 11.75C7.46507 11.75 8.25007 12.535 8.25007 13.5C8.25007 14.465 7.46507 15.25 6.50007 15.25C5.53507 15.25 4.75007 14.465 4.75007 13.5C4.75007 12.535 5.53507 11.75 6.50007 11.75ZM3.94807 19.146C3.91907 19.107 3.87507 19.025 3.90707 18.917C4.20207 17.931 4.89507 17.133 5.80707 16.671C6.03107 16.72 6.26107 16.749 6.50007 16.749C6.60107 16.749 6.69707 16.728 6.79607 16.719C6.19707 17.445 5.76007 18.304 5.50507 19.249H4.15107C4.04207 19.249 3.97707 19.186 3.94807 19.146ZM17.1071 20.15C17.0561 20.212 16.9781 20.25 16.8981 20.25H7.10207C7.02207 20.25 6.94407 20.213 6.89307 20.15C6.85207 20.1 6.83607 20.046 6.84707 19.992C7.32507 17.534 9.49307 15.75 12.0001 15.75C14.5071 15.75 16.6761 17.534 17.1531 19.992C17.1641 20.047 17.1481 20.1 17.1071 20.15ZM20.0511 19.146C20.0221 19.185 19.9571 19.25 19.8481 19.25H18.4941C18.2401 18.305 17.8021 17.446 17.2031 16.72C17.3021 16.729 17.3971 16.75 17.4991 16.75C17.7371 16.75 17.9681 16.721 18.1921 16.672C19.1041 17.134 19.7971 17.932 20.0921 18.918C20.1241 19.025 20.0801 19.106 20.0511 19.146Z" fill="#898A8D"/>

<svg width="20" height="20" viewBox="0 0 20 20" fill="none" xmlns="http://www.w3.org/2000/svg">
<path d="M18.125 8.125C18.2908 8.125 18.4497 8.05915 18.5669 7.94194C18.6842 7.82473 18.75 7.66576 18.75 7.5V5C18.75 4.66848 18.6183 4.35054 18.3839 4.11612C18.1495 3.8817 17.8315 3.75 17.5 3.75H2.5C2.16848 3.75 1.85054 3.8817 1.61612 4.11612C1.3817 4.35054 1.25 4.66848 1.25 5V7.5C1.25 7.66576 1.31585 7.82473 1.43306 7.94194C1.55027 8.05915 1.70924 8.125 1.875 8.125C2.37228 8.125 2.84919 8.32254 3.20083 8.67417C3.55246 9.02581 3.75 9.50272 3.75 10C3.75 10.4973 3.55246 10.9742 3.20083 11.3258C2.84919 11.6775 2.37228 11.875 1.875 11.875C1.70924 11.875 1.55027 11.9408 1.43306 12.0581C1.31585 12.1753 1.25 12.3342 1.25 12.5V15C1.25 15.3315 1.3817 15.6495 1.61612 15.8839C1.85054 16.1183 2.16848 16.25 2.5 16.25H17.5C17.8315 16.25 18.1495 16.1183 18.3839 15.8839C18.6183 15.6495 18.75 15.3315 18.75 15V12.5C18.75 12.3342 18.6842 12.1753 18.5669 12.0581C18.4497 11.9408 18.2908 11.875 18.125 11.875C17.6277 11.875 17.1508 11.6775 16.7992 11.3258C16.4475 10.9742 16.25 10.4973 16.25 10C16.25 9.50272 16.4475 9.02581 16.7992 8.67417C17.1508 8.32254 17.6277 8.125 18.125 8.125ZM2.5 13.0625C3.20643 12.9191 3.84155 12.5358 4.29774 11.9777C4.75393 11.4195 5.00313 10.7208 5.00313 10C5.00313 9.27915 4.75393 8.58047 4.29774 8.02234C3.84155 7.46421 3.20643 7.08095 2.5 6.9375V5H6.875V15H2.5V13.0625ZM17.5 13.0625V15H8.125V5H17.5V6.9375C16.7936 7.08095 16.1585 7.46421 15.7023 8.02234C15.2461 8.58047 14.9969 9.27915 14.9969 10C14.9969 10.7208 15.2461 11.4195 15.7023 11.9777C16.1585 12.5358 16.7936 12.9191 17.5 13.0625Z" fill="black"/>

</svg>
