<svg width="44" height="43" viewBox="0 0 44 43" fill="none" xmlns="http://www.w3.org/2000/svg">
<path d="M0.959961 21.32C0.959961 9.83244 10.2724 0.519958 21.76 0.519958C33.2475 0.519958 42.56 9.83244 42.56 21.32C42.56 32.8075 33.2475 42.12 21.76 42.12C10.2724 42.12 0.959961 32.8075 0.959961 21.32Z" fill="white"/>
<path d="M0.959961 21.32C0.959961 9.83244 10.2724 0.519958 21.76 0.519958C33.2475 0.519958 42.56 9.83244 42.56 21.32C42.56 32.8075 33.2475 42.12 21.76 42.12C10.2724 42.12 0.959961 32.8075 0.959961 21.32Z" stroke="#DDDDDD" stroke-width="1.04"/>
<path fill-rule="evenodd" clip-rule="evenodd" d="M25.92 17.16C25.3456 17.16 24.88 17.6256 24.88 18.2C24.88 18.7743 25.3456 19.24 25.92 19.24C26.4944 19.24 26.96 18.7743 26.96 18.2C26.96 17.6256 26.4944 17.16 25.92 17.16ZM25.92 21.32C24.5615 21.32 23.4058 20.4518 22.9775 19.24H15.52C14.9456 19.24 14.48 18.7743 14.48 18.2C14.48 17.6256 14.9456 17.16 15.52 17.16H22.9775C23.4058 15.9482 24.5615 15.08 25.92 15.08C27.6431 15.08 29.04 16.4768 29.04 18.2C29.04 19.9231 27.6431 21.32 25.92 21.32ZM18.64 24.44C18.64 23.8656 18.1744 23.4 17.6 23.4C17.0256 23.4 16.56 23.8656 16.56 24.44C16.56 25.0143 17.0256 25.48 17.6 25.48C18.1744 25.48 18.64 25.0143 18.64 24.44ZM28 23.4H20.5424C20.1141 22.1882 18.9584 21.32 17.6 21.32C15.8769 21.32 14.48 22.7168 14.48 24.44C14.48 26.1631 15.8769 27.56 17.6 27.56C18.9584 27.56 20.1141 26.6918 20.5424 25.48H28C28.5744 25.48 29.04 25.0143 29.04 24.44C29.04 23.8656 28.5744 23.4 28 23.4Z" fill="black"/>
</svg>
