<svg width="14" height="14" viewBox="0 0 14 14" fill="none" xmlns="http://www.w3.org/2000/svg">
    <path d="M0.666016 1.3325C0.666016 1.1558 0.73621 0.986338 0.861156 0.861392C0.986102 0.736446 1.15557 0.666252 1.33227 0.666252H11.9923C12.169 0.666252 12.3384 0.736446 12.4634 0.861392C12.5883 0.986338 12.6585 1.1558 12.6585 1.3325V3.05542C12.6585 3.23211 12.5883 3.40155 12.4633 3.52646L8.18998 7.79979C8.06502 7.92471 7.9948 8.09414 7.99477 8.27083V9.99375L5.32977 12.6588V8.27083C5.32973 8.09414 5.25951 7.92471 5.13455 7.79979L0.861227 3.52646C0.736272 3.40155 0.666053 3.23211 0.666016 3.05542V1.3325Z" stroke="#05A8C7" stroke-width="1.3325" stroke-linecap="round" stroke-linejoin="round"/>
</svg>
