<svg width="346" height="38" viewBox="0 0 346 38" fill="none" xmlns="http://www.w3.org/2000/svg">
<path d="M84 10L215 9.99999" stroke="#DDDDDD" stroke-linecap="round"/>
<path d="M215 10L261 10" stroke="#DDDDDD" stroke-linecap="round"/>
<circle cx="83.5" cy="10" r="6" fill="#488FE9"/>
<path d="M68.2074 31.1108H66.8778C66.8267 30.8267 66.7315 30.5767 66.5923 30.3608C66.4531 30.1449 66.2827 29.9616 66.081 29.8111C65.8793 29.6605 65.6534 29.5469 65.4034 29.4702C65.1563 29.3935 64.8935 29.3551 64.6151 29.3551C64.1122 29.3551 63.6619 29.4815 63.2642 29.7344C62.8693 29.9872 62.5568 30.358 62.3267 30.8466C62.0994 31.3352 61.9858 31.9318 61.9858 32.6364C61.9858 33.3466 62.0994 33.946 62.3267 34.4347C62.5568 34.9233 62.8707 35.2926 63.2685 35.5426C63.6662 35.7926 64.1136 35.9176 64.6108 35.9176C64.8864 35.9176 65.1477 35.8807 65.3949 35.8068C65.6449 35.7301 65.8707 35.6179 66.0724 35.4702C66.2741 35.3224 66.4446 35.142 66.5838 34.929C66.7259 34.7131 66.8239 34.4659 66.8778 34.1875L68.2074 34.1918C68.1364 34.6207 67.9986 35.0156 67.794 35.3764C67.5923 35.7344 67.3324 36.044 67.0142 36.3054C66.6989 36.5639 66.3381 36.7642 65.9318 36.9062C65.5256 37.0483 65.0824 37.1193 64.6023 37.1193C63.8466 37.1193 63.1733 36.9403 62.5824 36.5824C61.9915 36.2216 61.5256 35.706 61.1847 35.0355C60.8466 34.3651 60.6776 33.5653 60.6776 32.6364C60.6776 31.7045 60.848 30.9048 61.1889 30.2372C61.5298 29.5668 61.9957 29.0526 62.5866 28.6946C63.1776 28.3338 63.8494 28.1534 64.6023 28.1534C65.0653 28.1534 65.4972 28.2202 65.8977 28.3537C66.3011 28.4844 66.6634 28.6776 66.9844 28.9332C67.3054 29.1861 67.571 29.4957 67.7812 29.8622C67.9915 30.2259 68.1335 30.642 68.2074 31.1108ZM72.4379 37.1321C71.8242 37.1321 71.2887 36.9915 70.8313 36.7102C70.3739 36.429 70.0188 36.0355 69.766 35.5298C69.5131 35.0241 69.3867 34.4332 69.3867 33.7571C69.3867 33.0781 69.5131 32.4844 69.766 31.9759C70.0188 31.4673 70.3739 31.0724 70.8313 30.7912C71.2887 30.5099 71.8242 30.3693 72.4379 30.3693C73.0515 30.3693 73.587 30.5099 74.0444 30.7912C74.5018 31.0724 74.8569 31.4673 75.1097 31.9759C75.3626 32.4844 75.489 33.0781 75.489 33.7571C75.489 34.4332 75.3626 35.0241 75.1097 35.5298C74.8569 36.0355 74.5018 36.429 74.0444 36.7102C73.587 36.9915 73.0515 37.1321 72.4379 37.1321ZM72.4421 36.0625C72.8398 36.0625 73.1694 35.9574 73.4308 35.7472C73.6921 35.5369 73.8853 35.2571 74.0103 34.9077C74.1381 34.5582 74.2021 34.1733 74.2021 33.7528C74.2021 33.3352 74.1381 32.9517 74.0103 32.6023C73.8853 32.25 73.6921 31.9673 73.4308 31.7543C73.1694 31.5412 72.8398 31.4347 72.4421 31.4347C72.0415 31.4347 71.7092 31.5412 71.445 31.7543C71.1836 31.9673 70.989 32.25 70.8612 32.6023C70.7362 32.9517 70.6737 33.3352 70.6737 33.7528C70.6737 34.1733 70.7362 34.5582 70.8612 34.9077C70.989 35.2571 71.1836 35.5369 71.445 35.7472C71.7092 35.9574 72.0415 36.0625 72.4421 36.0625ZM78.1854 33.1136V37H76.9112V30.4545H78.1342V31.5199H78.2152C78.3658 31.1733 78.6016 30.8949 78.9226 30.6847C79.2464 30.4744 79.6541 30.3693 80.1456 30.3693C80.5916 30.3693 80.9822 30.4631 81.3175 30.6506C81.6527 30.8352 81.9126 31.1108 82.0973 31.4773C82.282 31.8437 82.3743 32.2969 82.3743 32.8366V37H81.1001V32.9901C81.1001 32.5156 80.9766 32.1449 80.7294 31.8778C80.4822 31.608 80.1428 31.473 79.7109 31.473C79.4155 31.473 79.1527 31.5369 78.9226 31.6648C78.6953 31.7926 78.5149 31.9801 78.3814 32.2273C78.2507 32.4716 78.1854 32.767 78.1854 33.1136ZM87.1385 30.4545V31.4773H83.5632V30.4545H87.1385ZM84.522 28.8864H85.7962V35.0781C85.7962 35.3253 85.8331 35.5114 85.907 35.6364C85.9808 35.7585 86.076 35.8423 86.1925 35.8878C86.3118 35.9304 86.4411 35.9517 86.5803 35.9517C86.6825 35.9517 86.772 35.9446 86.8487 35.9304C86.9254 35.9162 86.9851 35.9048 87.0277 35.8963L87.2578 36.9489C87.1839 36.9773 87.0788 37.0057 86.9425 37.0341C86.8061 37.0653 86.6357 37.0824 86.4311 37.0852C86.0959 37.0909 85.7834 37.0312 85.4936 36.9062C85.2038 36.7812 84.9695 36.5881 84.7905 36.3267C84.6115 36.0653 84.522 35.7372 84.522 35.3423V28.8864ZM91.2987 37.1321C90.6538 37.1321 90.0984 36.9943 89.6325 36.7188C89.1694 36.4403 88.8114 36.0497 88.5586 35.5469C88.3086 35.0412 88.1836 34.4489 88.1836 33.7699C88.1836 33.0994 88.3086 32.5085 88.5586 31.9972C88.8114 31.4858 89.1637 31.0866 89.6154 30.7997C90.07 30.5128 90.6012 30.3693 91.2092 30.3693C91.5785 30.3693 91.9364 30.4304 92.283 30.5526C92.6296 30.6747 92.9407 30.8665 93.2163 31.1278C93.4918 31.3892 93.7092 31.7287 93.8683 32.1463C94.0273 32.5611 94.1069 33.0653 94.1069 33.6591V34.1108H88.9038V33.1562H92.8583C92.8583 32.821 92.7901 32.5241 92.6538 32.2656C92.5174 32.0043 92.3256 31.7983 92.0785 31.6477C91.8342 31.4972 91.5472 31.4219 91.2177 31.4219C90.8597 31.4219 90.5472 31.5099 90.2802 31.6861C90.016 31.8594 89.8114 32.0866 89.6665 32.3679C89.5245 32.6463 89.4535 32.9489 89.4535 33.2756V34.0213C89.4535 34.4588 89.5302 34.831 89.6836 35.1378C89.8398 35.4446 90.0572 35.679 90.3356 35.8409C90.614 36 90.9393 36.0795 91.3114 36.0795C91.5529 36.0795 91.7731 36.0455 91.9719 35.9773C92.1708 35.9062 92.3427 35.8011 92.4876 35.6619C92.6325 35.5227 92.7433 35.3509 92.82 35.1463L94.0259 35.3636C93.9293 35.7187 93.756 36.0298 93.506 36.2969C93.2589 36.5611 92.9478 36.767 92.5728 36.9148C92.2006 37.0597 91.7759 37.1321 91.2987 37.1321ZM96.7947 33.1136V37H95.5206V30.4545H96.7436V31.5199H96.8246C96.9751 31.1733 97.2109 30.8949 97.532 30.6847C97.8558 30.4744 98.2635 30.3693 98.755 30.3693C99.201 30.3693 99.5916 30.4631 99.9268 30.6506C100.262 30.8352 100.522 31.1108 100.707 31.4773C100.891 31.8437 100.984 32.2969 100.984 32.8366V37H99.7095V32.9901C99.7095 32.5156 99.5859 32.1449 99.3388 31.8778C99.0916 31.608 98.7521 31.473 98.3203 31.473C98.0249 31.473 97.7621 31.5369 97.532 31.6648C97.3047 31.7926 97.1243 31.9801 96.9908 32.2273C96.8601 32.4716 96.7947 32.767 96.7947 33.1136ZM105.748 30.4545V31.4773H102.173V30.4545H105.748ZM103.131 28.8864H104.406V35.0781C104.406 35.3253 104.442 35.5114 104.516 35.6364C104.59 35.7585 104.685 35.8423 104.802 35.8878C104.921 35.9304 105.05 35.9517 105.19 35.9517C105.292 35.9517 105.381 35.9446 105.458 35.9304C105.535 35.9162 105.594 35.9048 105.637 35.8963L105.867 36.9489C105.793 36.9773 105.688 37.0057 105.552 37.0341C105.415 37.0653 105.245 37.0824 105.04 37.0852C104.705 37.0909 104.393 37.0312 104.103 36.9062C103.813 36.7812 103.579 36.5881 103.4 36.3267C103.221 36.0653 103.131 35.7372 103.131 35.3423V28.8864Z" fill="black"/>
<circle cx="260.5" cy="10" r="6" fill="#DDDDDD"/>
<path d="M233.196 37H231.798L234.939 28.2727H236.46L239.601 37H238.203L235.736 29.858H235.668L233.196 37ZM233.43 33.5824H237.964V34.6903H233.43V33.5824ZM243.404 30.4545V31.4773H239.829V30.4545H243.404ZM240.788 28.8864H242.062V35.0781C242.062 35.3253 242.099 35.5114 242.173 35.6364C242.246 35.7585 242.342 35.8423 242.458 35.8878C242.577 35.9304 242.707 35.9517 242.846 35.9517C242.948 35.9517 243.038 35.9446 243.114 35.9304C243.191 35.9162 243.251 35.9048 243.293 35.8963L243.523 36.9489C243.45 36.9773 243.344 37.0057 243.208 37.0341C243.072 37.0653 242.901 37.0824 242.697 37.0852C242.362 37.0909 242.049 37.0312 241.759 36.9062C241.469 36.7812 241.235 36.5881 241.056 36.3267C240.877 36.0653 240.788 35.7372 240.788 35.3423V28.8864ZM247.869 30.4545V31.4773H244.294V30.4545H247.869ZM245.252 28.8864H246.527V35.0781C246.527 35.3253 246.564 35.5114 246.637 35.6364C246.711 35.7585 246.806 35.8423 246.923 35.8878C247.042 35.9304 247.172 35.9517 247.311 35.9517C247.413 35.9517 247.502 35.9446 247.579 35.9304C247.656 35.9162 247.716 35.9048 247.758 35.8963L247.988 36.9489C247.914 36.9773 247.809 37.0057 247.673 37.0341C247.537 37.0653 247.366 37.0824 247.162 37.0852C246.826 37.0909 246.514 37.0312 246.224 36.9062C245.934 36.7812 245.7 36.5881 245.521 36.3267C245.342 36.0653 245.252 35.7372 245.252 35.3423V28.8864ZM249.278 37V30.4545H250.51V31.4943H250.578C250.697 31.142 250.908 30.8651 251.209 30.6634C251.513 30.4588 251.857 30.3565 252.24 30.3565C252.32 30.3565 252.413 30.3594 252.521 30.3651C252.632 30.3707 252.719 30.3778 252.781 30.3864V31.6051C252.73 31.5909 252.639 31.5753 252.509 31.5582C252.378 31.5384 252.247 31.5284 252.116 31.5284C251.815 31.5284 251.547 31.5923 251.311 31.7202C251.078 31.8452 250.893 32.0199 250.757 32.2443C250.621 32.4659 250.553 32.7187 250.553 33.0028V37H249.278ZM253.884 37V30.4545H255.158V37H253.884ZM254.527 29.4446C254.306 29.4446 254.115 29.3707 253.956 29.223C253.8 29.0724 253.722 28.8935 253.722 28.6861C253.722 28.4759 253.8 28.2969 253.956 28.1491C254.115 27.9986 254.306 27.9233 254.527 27.9233C254.749 27.9233 254.938 27.9986 255.094 28.1491C255.253 28.2969 255.333 28.4759 255.333 28.6861C255.333 28.8935 255.253 29.0724 255.094 29.223C254.938 29.3707 254.749 29.4446 254.527 29.4446ZM256.974 37V28.2727H258.249V31.5156H258.325C258.399 31.3793 258.506 31.2216 258.645 31.0426C258.784 30.8636 258.977 30.7074 259.224 30.5739C259.472 30.4375 259.798 30.3693 260.205 30.3693C260.733 30.3693 261.205 30.5028 261.619 30.7699C262.034 31.0369 262.359 31.4219 262.595 31.9247C262.834 32.4276 262.953 33.0327 262.953 33.7401C262.953 34.4474 262.835 35.054 262.599 35.5597C262.364 36.0625 262.04 36.4503 261.628 36.723C261.216 36.9929 260.746 37.1278 260.217 37.1278C259.82 37.1278 259.494 37.0611 259.241 36.9276C258.991 36.794 258.795 36.6378 258.653 36.4588C258.511 36.2798 258.402 36.1207 258.325 35.9815H258.219V37H256.974ZM258.223 33.7273C258.223 34.1875 258.29 34.5909 258.423 34.9375C258.557 35.2841 258.75 35.5554 259.003 35.7514C259.256 35.9446 259.565 36.0412 259.932 36.0412C260.312 36.0412 260.631 35.9403 260.886 35.7386C261.142 35.5341 261.335 35.2571 261.466 34.9077C261.599 34.5582 261.666 34.1648 261.666 33.7273C261.666 33.2955 261.601 32.9077 261.47 32.5639C261.342 32.2202 261.149 31.9489 260.891 31.75C260.635 31.5511 260.315 31.4517 259.932 31.4517C259.562 31.4517 259.25 31.5469 258.994 31.7372C258.741 31.9276 258.55 32.1932 258.419 32.5341C258.288 32.875 258.223 33.2727 258.223 33.7273ZM268.53 34.2855V30.4545H269.809V37H268.556V35.8665H268.488C268.337 36.2159 268.096 36.5071 267.763 36.7401C267.434 36.9702 267.023 37.0852 266.532 37.0852C266.111 37.0852 265.739 36.9929 265.415 36.8082C265.094 36.6207 264.841 36.3438 264.657 35.9773C264.475 35.6108 264.384 35.1577 264.384 34.6179V30.4545H265.658V34.4645C265.658 34.9105 265.782 35.2656 266.029 35.5298C266.276 35.794 266.597 35.9261 266.992 35.9261C267.23 35.9261 267.468 35.8665 267.703 35.7472C267.942 35.6278 268.14 35.4474 268.296 35.206C268.455 34.9645 268.533 34.6577 268.53 34.2855ZM274.576 30.4545V31.4773H271.001V30.4545H274.576ZM271.96 28.8864H273.234V35.0781C273.234 35.3253 273.271 35.5114 273.344 35.6364C273.418 35.7585 273.513 35.8423 273.63 35.8878C273.749 35.9304 273.879 35.9517 274.018 35.9517C274.12 35.9517 274.21 35.9446 274.286 35.9304C274.363 35.9162 274.423 35.9048 274.465 35.8963L274.695 36.9489C274.621 36.9773 274.516 37.0057 274.38 37.0341C274.244 37.0653 274.073 37.0824 273.869 37.0852C273.533 37.0909 273.221 37.0312 272.931 36.9062C272.641 36.7812 272.407 36.5881 272.228 36.3267C272.049 36.0653 271.96 35.7372 271.96 35.3423V28.8864ZM278.736 37.1321C278.091 37.1321 277.536 36.9943 277.07 36.7188C276.607 36.4403 276.249 36.0497 275.996 35.5469C275.746 35.0412 275.621 34.4489 275.621 33.7699C275.621 33.0994 275.746 32.5085 275.996 31.9972C276.249 31.4858 276.601 31.0866 277.053 30.7997C277.507 30.5128 278.039 30.3693 278.647 30.3693C279.016 30.3693 279.374 30.4304 279.721 30.5526C280.067 30.6747 280.378 30.8665 280.654 31.1278C280.929 31.3892 281.147 31.7287 281.306 32.1463C281.465 32.5611 281.544 33.0653 281.544 33.6591V34.1108H276.341V33.1562H280.296C280.296 32.821 280.228 32.5241 280.091 32.2656C279.955 32.0043 279.763 31.7983 279.516 31.6477C279.272 31.4972 278.985 31.4219 278.655 31.4219C278.297 31.4219 277.985 31.5099 277.718 31.6861C277.453 31.8594 277.249 32.0866 277.104 32.3679C276.962 32.6463 276.891 32.9489 276.891 33.2756V34.0213C276.891 34.4588 276.968 34.831 277.121 35.1378C277.277 35.4446 277.495 35.679 277.773 35.8409C278.051 36 278.377 36.0795 278.749 36.0795C278.99 36.0795 279.211 36.0455 279.409 35.9773C279.608 35.9062 279.78 35.8011 279.925 35.6619C280.07 35.5227 280.181 35.3509 280.257 35.1463L281.463 35.3636C281.367 35.7187 281.194 36.0298 280.944 36.2969C280.696 36.5611 280.385 36.767 280.01 36.9148C279.638 37.0597 279.213 37.1321 278.736 37.1321ZM287.863 32.0526L286.708 32.2571C286.66 32.1094 286.583 31.9687 286.478 31.8352C286.376 31.7017 286.237 31.5923 286.06 31.5071C285.884 31.4219 285.664 31.3793 285.4 31.3793C285.039 31.3793 284.738 31.4602 284.496 31.6222C284.255 31.7812 284.134 31.9872 284.134 32.2401C284.134 32.4588 284.215 32.6349 284.377 32.7685C284.539 32.902 284.8 33.0114 285.161 33.0966L286.201 33.3352C286.803 33.4744 287.252 33.6889 287.548 33.9787C287.843 34.2685 287.991 34.6449 287.991 35.108C287.991 35.5 287.877 35.8494 287.65 36.1562C287.425 36.4602 287.112 36.6989 286.708 36.8722C286.308 37.0455 285.843 37.1321 285.315 37.1321C284.582 37.1321 283.984 36.9759 283.521 36.6634C283.058 36.348 282.773 35.9006 282.668 35.321L283.9 35.1335C283.977 35.4545 284.134 35.6974 284.373 35.8622C284.612 36.0241 284.923 36.1051 285.306 36.1051C285.724 36.1051 286.058 36.0185 286.308 35.8452C286.558 35.669 286.683 35.4545 286.683 35.2017C286.683 34.9972 286.606 34.8253 286.452 34.6861C286.302 34.5469 286.07 34.4418 285.758 34.3707L284.65 34.1278C284.039 33.9886 283.587 33.767 283.295 33.4631C283.005 33.1591 282.86 32.7741 282.86 32.3082C282.86 31.9219 282.968 31.5838 283.184 31.294C283.4 31.0043 283.698 30.7784 284.079 30.6165C284.46 30.4517 284.896 30.3693 285.387 30.3693C286.094 30.3693 286.651 30.5227 287.058 30.8295C287.464 31.1335 287.732 31.5412 287.863 32.0526Z" fill="black"/>
<circle cx="84" cy="10" r="8.5" fill="white" stroke="#488FE9"/>
<circle cx="84" cy="10" r="6.75" stroke="#488FE9" stroke-width="2.5"/>
</svg>
