<svg width="14" height="14" viewBox="0 0 14 14" fill="none" xmlns="http://www.w3.org/2000/svg">
    <path d="M10.5334 11.5917L9.33341 6.12501L11.6667 3.79167C12.6667 2.79167 13.0001 1.45834 12.6667 0.791672C12.0001 0.458338 10.6667 0.791672 9.66675 1.79167L7.33341 4.12501L1.86675 2.92501C1.53341 2.85834 1.26675 2.99167 1.13341 3.25834L0.933415 3.59167C0.800081 3.92501 0.866748 4.25834 1.13341 4.45834L4.66675 6.79167L3.33341 8.79167H1.33341L0.666748 9.45834L2.66675 10.7917L4.00008 12.7917L4.66675 12.125V10.125L6.66675 8.79167L9.00008 12.325C9.20008 12.5917 9.53341 12.6583 9.86675 12.525L10.2001 12.3917C10.4667 12.1917 10.6001 11.925 10.5334 11.5917Z" stroke="#6B7280" stroke-width="1.33333" stroke-linecap="round" stroke-linejoin="round"/>
</svg>
