<svg width="344" height="34" viewBox="0 0 344 34" fill="none" xmlns="http://www.w3.org/2000/svg">
<path d="M84 6L261 5.99998" stroke="#488FE9" stroke-linecap="round"/>
<circle cx="83.5" cy="6" r="6" fill="#488FE9"/>
<path d="M68.2074 27.1108H66.8778C66.8267 26.8267 66.7315 26.5767 66.5923 26.3608C66.4531 26.1449 66.2827 25.9616 66.081 25.8111C65.8793 25.6605 65.6534 25.5469 65.4034 25.4702C65.1563 25.3935 64.8935 25.3551 64.6151 25.3551C64.1122 25.3551 63.6619 25.4815 63.2642 25.7344C62.8693 25.9872 62.5568 26.358 62.3267 26.8466C62.0994 27.3352 61.9858 27.9318 61.9858 28.6364C61.9858 29.3466 62.0994 29.946 62.3267 30.4347C62.5568 30.9233 62.8707 31.2926 63.2685 31.5426C63.6662 31.7926 64.1136 31.9176 64.6108 31.9176C64.8864 31.9176 65.1477 31.8807 65.3949 31.8068C65.6449 31.7301 65.8707 31.6179 66.0724 31.4702C66.2741 31.3224 66.4446 31.142 66.5838 30.929C66.7259 30.7131 66.8239 30.4659 66.8778 30.1875L68.2074 30.1918C68.1364 30.6207 67.9986 31.0156 67.794 31.3764C67.5923 31.7344 67.3324 32.044 67.0142 32.3054C66.6989 32.5639 66.3381 32.7642 65.9318 32.9062C65.5256 33.0483 65.0824 33.1193 64.6023 33.1193C63.8466 33.1193 63.1733 32.9403 62.5824 32.5824C61.9915 32.2216 61.5256 31.706 61.1847 31.0355C60.8466 30.3651 60.6776 29.5653 60.6776 28.6364C60.6776 27.7045 60.848 26.9048 61.1889 26.2372C61.5298 25.5668 61.9957 25.0526 62.5866 24.6946C63.1776 24.3338 63.8494 24.1534 64.6023 24.1534C65.0653 24.1534 65.4972 24.2202 65.8977 24.3537C66.3011 24.4844 66.6634 24.6776 66.9844 24.9332C67.3054 25.1861 67.571 25.4957 67.7812 25.8622C67.9915 26.2259 68.1335 26.642 68.2074 27.1108ZM72.4379 33.1321C71.8242 33.1321 71.2887 32.9915 70.8313 32.7102C70.3739 32.429 70.0188 32.0355 69.766 31.5298C69.5131 31.0241 69.3867 30.4332 69.3867 29.7571C69.3867 29.0781 69.5131 28.4844 69.766 27.9759C70.0188 27.4673 70.3739 27.0724 70.8313 26.7912C71.2887 26.5099 71.8242 26.3693 72.4379 26.3693C73.0515 26.3693 73.587 26.5099 74.0444 26.7912C74.5018 27.0724 74.8569 27.4673 75.1097 27.9759C75.3626 28.4844 75.489 29.0781 75.489 29.7571C75.489 30.4332 75.3626 31.0241 75.1097 31.5298C74.8569 32.0355 74.5018 32.429 74.0444 32.7102C73.587 32.9915 73.0515 33.1321 72.4379 33.1321ZM72.4421 32.0625C72.8398 32.0625 73.1694 31.9574 73.4308 31.7472C73.6921 31.5369 73.8853 31.2571 74.0103 30.9077C74.1381 30.5582 74.2021 30.1733 74.2021 29.7528C74.2021 29.3352 74.1381 28.9517 74.0103 28.6023C73.8853 28.25 73.6921 27.9673 73.4308 27.7543C73.1694 27.5412 72.8398 27.4347 72.4421 27.4347C72.0415 27.4347 71.7092 27.5412 71.445 27.7543C71.1836 27.9673 70.989 28.25 70.8612 28.6023C70.7362 28.9517 70.6737 29.3352 70.6737 29.7528C70.6737 30.1733 70.7362 30.5582 70.8612 30.9077C70.989 31.2571 71.1836 31.5369 71.445 31.7472C71.7092 31.9574 72.0415 32.0625 72.4421 32.0625ZM78.1854 29.1136V33H76.9112V26.4545H78.1342V27.5199H78.2152C78.3658 27.1733 78.6016 26.8949 78.9226 26.6847C79.2464 26.4744 79.6541 26.3693 80.1456 26.3693C80.5916 26.3693 80.9822 26.4631 81.3175 26.6506C81.6527 26.8352 81.9126 27.1108 82.0973 27.4773C82.282 27.8437 82.3743 28.2969 82.3743 28.8366V33H81.1001V28.9901C81.1001 28.5156 80.9766 28.1449 80.7294 27.8778C80.4822 27.608 80.1428 27.473 79.7109 27.473C79.4155 27.473 79.1527 27.5369 78.9226 27.6648C78.6953 27.7926 78.5149 27.9801 78.3814 28.2273C78.2507 28.4716 78.1854 28.767 78.1854 29.1136ZM87.1385 26.4545V27.4773H83.5632V26.4545H87.1385ZM84.522 24.8864H85.7962V31.0781C85.7962 31.3253 85.8331 31.5114 85.907 31.6364C85.9808 31.7585 86.076 31.8423 86.1925 31.8878C86.3118 31.9304 86.4411 31.9517 86.5803 31.9517C86.6825 31.9517 86.772 31.9446 86.8487 31.9304C86.9254 31.9162 86.9851 31.9048 87.0277 31.8963L87.2578 32.9489C87.1839 32.9773 87.0788 33.0057 86.9425 33.0341C86.8061 33.0653 86.6357 33.0824 86.4311 33.0852C86.0959 33.0909 85.7834 33.0312 85.4936 32.9062C85.2038 32.7812 84.9695 32.5881 84.7905 32.3267C84.6115 32.0653 84.522 31.7372 84.522 31.3423V24.8864ZM91.2987 33.1321C90.6538 33.1321 90.0984 32.9943 89.6325 32.7188C89.1694 32.4403 88.8114 32.0497 88.5586 31.5469C88.3086 31.0412 88.1836 30.4489 88.1836 29.7699C88.1836 29.0994 88.3086 28.5085 88.5586 27.9972C88.8114 27.4858 89.1637 27.0866 89.6154 26.7997C90.07 26.5128 90.6012 26.3693 91.2092 26.3693C91.5785 26.3693 91.9364 26.4304 92.283 26.5526C92.6296 26.6747 92.9407 26.8665 93.2163 27.1278C93.4918 27.3892 93.7092 27.7287 93.8683 28.1463C94.0273 28.5611 94.1069 29.0653 94.1069 29.6591V30.1108H88.9038V29.1562H92.8583C92.8583 28.821 92.7901 28.5241 92.6538 28.2656C92.5174 28.0043 92.3256 27.7983 92.0785 27.6477C91.8342 27.4972 91.5472 27.4219 91.2177 27.4219C90.8597 27.4219 90.5472 27.5099 90.2802 27.6861C90.016 27.8594 89.8114 28.0866 89.6665 28.3679C89.5245 28.6463 89.4535 28.9489 89.4535 29.2756V30.0213C89.4535 30.4588 89.5302 30.831 89.6836 31.1378C89.8398 31.4446 90.0572 31.679 90.3356 31.8409C90.614 32 90.9393 32.0795 91.3114 32.0795C91.5529 32.0795 91.7731 32.0455 91.9719 31.9773C92.1708 31.9062 92.3427 31.8011 92.4876 31.6619C92.6325 31.5227 92.7433 31.3509 92.82 31.1463L94.0259 31.3636C93.9293 31.7187 93.756 32.0298 93.506 32.2969C93.2589 32.5611 92.9478 32.767 92.5728 32.9148C92.2006 33.0597 91.7759 33.1321 91.2987 33.1321ZM96.7947 29.1136V33H95.5206V26.4545H96.7436V27.5199H96.8246C96.9751 27.1733 97.2109 26.8949 97.532 26.6847C97.8558 26.4744 98.2635 26.3693 98.755 26.3693C99.201 26.3693 99.5916 26.4631 99.9268 26.6506C100.262 26.8352 100.522 27.1108 100.707 27.4773C100.891 27.8437 100.984 28.2969 100.984 28.8366V33H99.7095V28.9901C99.7095 28.5156 99.5859 28.1449 99.3388 27.8778C99.0916 27.608 98.7521 27.473 98.3203 27.473C98.0249 27.473 97.7621 27.5369 97.532 27.6648C97.3047 27.7926 97.1243 27.9801 96.9908 28.2273C96.8601 28.4716 96.7947 28.767 96.7947 29.1136ZM105.748 26.4545V27.4773H102.173V26.4545H105.748ZM103.131 24.8864H104.406V31.0781C104.406 31.3253 104.442 31.5114 104.516 31.6364C104.59 31.7585 104.685 31.8423 104.802 31.8878C104.921 31.9304 105.05 31.9517 105.19 31.9517C105.292 31.9517 105.381 31.9446 105.458 31.9304C105.535 31.9162 105.594 31.9048 105.637 31.8963L105.867 32.9489C105.793 32.9773 105.688 33.0057 105.552 33.0341C105.415 33.0653 105.245 33.0824 105.04 33.0852C104.705 33.0909 104.393 33.0312 104.103 32.9062C103.813 32.7812 103.579 32.5881 103.4 32.3267C103.221 32.0653 103.131 31.7372 103.131 31.3423V24.8864Z" fill="black"/>
<circle cx="260.5" cy="6" r="6" fill="#DDDDDD"/>
<path d="M233.196 33H231.798L234.939 24.2727H236.46L239.601 33H238.203L235.736 25.858H235.668L233.196 33ZM233.43 29.5824H237.964V30.6903H233.43V29.5824ZM243.404 26.4545V27.4773H239.829V26.4545H243.404ZM240.788 24.8864H242.062V31.0781C242.062 31.3253 242.099 31.5114 242.173 31.6364C242.246 31.7585 242.342 31.8423 242.458 31.8878C242.577 31.9304 242.707 31.9517 242.846 31.9517C242.948 31.9517 243.038 31.9446 243.114 31.9304C243.191 31.9162 243.251 31.9048 243.293 31.8963L243.523 32.9489C243.45 32.9773 243.344 33.0057 243.208 33.0341C243.072 33.0653 242.901 33.0824 242.697 33.0852C242.362 33.0909 242.049 33.0312 241.759 32.9062C241.469 32.7812 241.235 32.5881 241.056 32.3267C240.877 32.0653 240.788 31.7372 240.788 31.3423V24.8864ZM247.869 26.4545V27.4773H244.294V26.4545H247.869ZM245.252 24.8864H246.527V31.0781C246.527 31.3253 246.564 31.5114 246.637 31.6364C246.711 31.7585 246.806 31.8423 246.923 31.8878C247.042 31.9304 247.172 31.9517 247.311 31.9517C247.413 31.9517 247.502 31.9446 247.579 31.9304C247.656 31.9162 247.716 31.9048 247.758 31.8963L247.988 32.9489C247.914 32.9773 247.809 33.0057 247.673 33.0341C247.537 33.0653 247.366 33.0824 247.162 33.0852C246.826 33.0909 246.514 33.0312 246.224 32.9062C245.934 32.7812 245.7 32.5881 245.521 32.3267C245.342 32.0653 245.252 31.7372 245.252 31.3423V24.8864ZM249.278 33V26.4545H250.51V27.4943H250.578C250.697 27.142 250.908 26.8651 251.209 26.6634C251.513 26.4588 251.857 26.3565 252.24 26.3565C252.32 26.3565 252.413 26.3594 252.521 26.3651C252.632 26.3707 252.719 26.3778 252.781 26.3864V27.6051C252.73 27.5909 252.639 27.5753 252.509 27.5582C252.378 27.5384 252.247 27.5284 252.116 27.5284C251.815 27.5284 251.547 27.5923 251.311 27.7202C251.078 27.8452 250.893 28.0199 250.757 28.2443C250.621 28.4659 250.553 28.7187 250.553 29.0028V33H249.278ZM253.884 33V26.4545H255.158V33H253.884ZM254.527 25.4446C254.306 25.4446 254.115 25.3707 253.956 25.223C253.8 25.0724 253.722 24.8935 253.722 24.6861C253.722 24.4759 253.8 24.2969 253.956 24.1491C254.115 23.9986 254.306 23.9233 254.527 23.9233C254.749 23.9233 254.938 23.9986 255.094 24.1491C255.253 24.2969 255.333 24.4759 255.333 24.6861C255.333 24.8935 255.253 25.0724 255.094 25.223C254.938 25.3707 254.749 25.4446 254.527 25.4446ZM256.974 33V24.2727H258.249V27.5156H258.325C258.399 27.3793 258.506 27.2216 258.645 27.0426C258.784 26.8636 258.977 26.7074 259.224 26.5739C259.472 26.4375 259.798 26.3693 260.205 26.3693C260.733 26.3693 261.205 26.5028 261.619 26.7699C262.034 27.0369 262.359 27.4219 262.595 27.9247C262.834 28.4276 262.953 29.0327 262.953 29.7401C262.953 30.4474 262.835 31.054 262.599 31.5597C262.364 32.0625 262.04 32.4503 261.628 32.723C261.216 32.9929 260.746 33.1278 260.217 33.1278C259.82 33.1278 259.494 33.0611 259.241 32.9276C258.991 32.794 258.795 32.6378 258.653 32.4588C258.511 32.2798 258.402 32.1207 258.325 31.9815H258.219V33H256.974ZM258.223 29.7273C258.223 30.1875 258.29 30.5909 258.423 30.9375C258.557 31.2841 258.75 31.5554 259.003 31.7514C259.256 31.9446 259.565 32.0412 259.932 32.0412C260.312 32.0412 260.631 31.9403 260.886 31.7386C261.142 31.5341 261.335 31.2571 261.466 30.9077C261.599 30.5582 261.666 30.1648 261.666 29.7273C261.666 29.2955 261.601 28.9077 261.47 28.5639C261.342 28.2202 261.149 27.9489 260.891 27.75C260.635 27.5511 260.315 27.4517 259.932 27.4517C259.562 27.4517 259.25 27.5469 258.994 27.7372C258.741 27.9276 258.55 28.1932 258.419 28.5341C258.288 28.875 258.223 29.2727 258.223 29.7273ZM268.53 30.2855V26.4545H269.809V33H268.556V31.8665H268.488C268.337 32.2159 268.096 32.5071 267.763 32.7401C267.434 32.9702 267.023 33.0852 266.532 33.0852C266.111 33.0852 265.739 32.9929 265.415 32.8082C265.094 32.6207 264.841 32.3438 264.657 31.9773C264.475 31.6108 264.384 31.1577 264.384 30.6179V26.4545H265.658V30.4645C265.658 30.9105 265.782 31.2656 266.029 31.5298C266.276 31.794 266.597 31.9261 266.992 31.9261C267.23 31.9261 267.468 31.8665 267.703 31.7472C267.942 31.6278 268.14 31.4474 268.296 31.206C268.455 30.9645 268.533 30.6577 268.53 30.2855ZM274.576 26.4545V27.4773H271.001V26.4545H274.576ZM271.96 24.8864H273.234V31.0781C273.234 31.3253 273.271 31.5114 273.344 31.6364C273.418 31.7585 273.513 31.8423 273.63 31.8878C273.749 31.9304 273.879 31.9517 274.018 31.9517C274.12 31.9517 274.21 31.9446 274.286 31.9304C274.363 31.9162 274.423 31.9048 274.465 31.8963L274.695 32.9489C274.621 32.9773 274.516 33.0057 274.38 33.0341C274.244 33.0653 274.073 33.0824 273.869 33.0852C273.533 33.0909 273.221 33.0312 272.931 32.9062C272.641 32.7812 272.407 32.5881 272.228 32.3267C272.049 32.0653 271.96 31.7372 271.96 31.3423V24.8864ZM278.736 33.1321C278.091 33.1321 277.536 32.9943 277.07 32.7188C276.607 32.4403 276.249 32.0497 275.996 31.5469C275.746 31.0412 275.621 30.4489 275.621 29.7699C275.621 29.0994 275.746 28.5085 275.996 27.9972C276.249 27.4858 276.601 27.0866 277.053 26.7997C277.507 26.5128 278.039 26.3693 278.647 26.3693C279.016 26.3693 279.374 26.4304 279.721 26.5526C280.067 26.6747 280.378 26.8665 280.654 27.1278C280.929 27.3892 281.147 27.7287 281.306 28.1463C281.465 28.5611 281.544 29.0653 281.544 29.6591V30.1108H276.341V29.1562H280.296C280.296 28.821 280.228 28.5241 280.091 28.2656C279.955 28.0043 279.763 27.7983 279.516 27.6477C279.272 27.4972 278.985 27.4219 278.655 27.4219C278.297 27.4219 277.985 27.5099 277.718 27.6861C277.453 27.8594 277.249 28.0866 277.104 28.3679C276.962 28.6463 276.891 28.9489 276.891 29.2756V30.0213C276.891 30.4588 276.968 30.831 277.121 31.1378C277.277 31.4446 277.495 31.679 277.773 31.8409C278.051 32 278.377 32.0795 278.749 32.0795C278.99 32.0795 279.211 32.0455 279.409 31.9773C279.608 31.9062 279.78 31.8011 279.925 31.6619C280.07 31.5227 280.181 31.3509 280.257 31.1463L281.463 31.3636C281.367 31.7187 281.194 32.0298 280.944 32.2969C280.696 32.5611 280.385 32.767 280.01 32.9148C279.638 33.0597 279.213 33.1321 278.736 33.1321ZM287.863 28.0526L286.708 28.2571C286.66 28.1094 286.583 27.9687 286.478 27.8352C286.376 27.7017 286.237 27.5923 286.06 27.5071C285.884 27.4219 285.664 27.3793 285.4 27.3793C285.039 27.3793 284.738 27.4602 284.496 27.6222C284.255 27.7812 284.134 27.9872 284.134 28.2401C284.134 28.4588 284.215 28.6349 284.377 28.7685C284.539 28.902 284.8 29.0114 285.161 29.0966L286.201 29.3352C286.803 29.4744 287.252 29.6889 287.548 29.9787C287.843 30.2685 287.991 30.6449 287.991 31.108C287.991 31.5 287.877 31.8494 287.65 32.1562C287.425 32.4602 287.112 32.6989 286.708 32.8722C286.308 33.0455 285.843 33.1321 285.315 33.1321C284.582 33.1321 283.984 32.9759 283.521 32.6634C283.058 32.348 282.773 31.9006 282.668 31.321L283.9 31.1335C283.977 31.4545 284.134 31.6974 284.373 31.8622C284.612 32.0241 284.923 32.1051 285.306 32.1051C285.724 32.1051 286.058 32.0185 286.308 31.8452C286.558 31.669 286.683 31.4545 286.683 31.2017C286.683 30.9972 286.606 30.8253 286.452 30.6861C286.302 30.5469 286.07 30.4418 285.758 30.3707L284.65 30.1278C284.039 29.9886 283.587 29.767 283.295 29.4631C283.005 29.1591 282.86 28.7741 282.86 28.3082C282.86 27.9219 282.968 27.5838 283.184 27.294C283.4 27.0043 283.698 26.7784 284.079 26.6165C284.46 26.4517 284.896 26.3693 285.387 26.3693C286.094 26.3693 286.651 26.5227 287.058 26.8295C287.464 27.1335 287.732 27.5412 287.863 28.0526Z" fill="black"/>
</svg>
