<svg width="20" height="20" viewBox="0 0 20 20" fill="none" xmlns="http://www.w3.org/2000/svg">
<g clip-path="url(#clip0_131_3300)">
<path d="M16.7612 10.4672L18.6603 9.51765C18.7333 9.48114 18.7984 9.43046 18.8516 9.36856C18.9048 9.30666 18.9451 9.23479 18.9703 9.15712C18.9954 9.07946 19.0048 8.99757 18.9979 8.91623C18.9911 8.8349 18.9681 8.75574 18.9303 8.68338L17.0408 5.06484C16.9662 4.922 16.8385 4.81416 16.6852 4.76455C16.5319 4.71494 16.3652 4.72752 16.2211 4.79958L14.3026 5.7588L16.7612 10.4672ZM16.7612 10.4672L15.5319 11.9053L12.7047 14.7325C12.6297 14.8076 12.5365 14.8619 12.4342 14.8902C12.3319 14.9186 12.224 14.9199 12.121 14.8942L7.66812 13.781C7.5846 13.7601 7.5064 13.7219 7.43858 13.6689L3.23887 10.3848M3.23887 10.3848L1.33977 9.4353C1.26676 9.3988 1.20176 9.34812 1.14855 9.28622C1.09533 9.22432 1.05499 9.15244 1.02986 9.07478C1.00472 8.99712 0.995315 8.91523 1.00217 8.83389C1.00903 8.75255 1.03203 8.67339 1.06981 8.60104L2.95932 4.9825C3.03391 4.83965 3.16161 4.73181 3.31493 4.6822C3.46825 4.63259 3.63492 4.64517 3.77905 4.71723L5.69748 5.67645L3.23887 10.3848Z" stroke="black" stroke-width="0.983445" stroke-linecap="round" stroke-linejoin="round"/>
<path d="M15.5319 11.9053L12.1513 9.44671L11.1679 10.1843C10.7423 10.5035 10.2247 10.676 9.69269 10.676C9.16072 10.676 8.6431 10.5035 8.21752 10.1843L7.80104 9.87193C7.73059 9.81909 7.67231 9.75173 7.63016 9.67441C7.58801 9.59709 7.56296 9.51162 7.55672 9.42378C7.55048 9.33594 7.56319 9.24778 7.59398 9.16528C7.62477 9.08277 7.67293 9.00785 7.7352 8.94558L10.742 5.93882C10.799 5.88174 10.8668 5.83647 10.9414 5.80558C11.0159 5.77469 11.0959 5.75879 11.1766 5.75879H14.3026" stroke="black" stroke-width="0.983445" stroke-linecap="round" stroke-linejoin="round"/>
<path d="M5.7417 5.67652L9.6847 4.52701C9.82555 4.48594 9.97645 4.49662 10.1101 4.5571L12.7661 5.75887" stroke="black" stroke-width="0.983445" stroke-linecap="round" stroke-linejoin="round"/>
</g>
<defs>
<clipPath id="clip0_131_3300">
<rect width="20" height="20" fill="white"/>
</clipPath>
</defs>
</svg>
