<svg width="20" height="20" viewBox="0 0 20 20" fill="none" xmlns="http://www.w3.org/2000/svg">
<path d="M18.7502 10C18.7503 11.7107 18.2104 13.3778 17.2075 14.7637C16.2046 16.1496 14.7899 17.1836 13.1649 17.7183C11.5399 18.253 9.78765 18.2612 8.15775 17.7417C6.52784 17.2222 5.1035 16.2015 4.0877 14.825L5.09395 14.0813C6.01196 15.3281 7.32397 16.2285 8.81749 16.6367C10.311 17.045 11.8986 16.9371 13.3232 16.3306C14.7478 15.7241 15.9259 14.6545 16.6669 13.295C17.4078 11.9354 17.6681 10.3656 17.4057 8.8397C17.1432 7.3138 16.3734 5.92115 15.2208 4.88728C14.0683 3.85341 12.6005 3.23887 11.0551 3.14316C9.50977 3.04745 7.97736 3.47618 6.70603 4.35993C5.43471 5.24367 4.49892 6.53068 4.0502 8.01255L4.6752 7.6063L5.3752 8.6438L3.5002 9.8938C3.38972 9.96828 3.25833 10.0055 3.1252 10C3.02282 10.0002 2.92197 9.97521 2.83152 9.92726C2.74107 9.8793 2.66378 9.80987 2.60645 9.72505L1.35645 7.85005L2.39395 7.15005L2.81895 7.77505C3.36121 5.89642 4.56276 4.27636 6.20311 3.21216C7.84346 2.14795 9.81257 1.71098 11.7491 1.98144C13.6856 2.2519 15.4597 3.21165 16.7457 4.68456C18.0317 6.15747 18.7434 8.04474 18.7502 10ZM10.0002 5.62505V10C9.99972 10.0823 10.0155 10.1638 10.0466 10.24C10.0777 10.3161 10.1235 10.3854 10.1814 10.4438L12.0564 12.3188L12.9439 11.4313L11.2502 9.7438V5.62505H10.0002Z" fill="black"/>
</svg>
