<svg width="18" height="17" viewBox="0 0 18 17" fill="none" xmlns="http://www.w3.org/2000/svg">
    <path d="M6.35 15.75V9.83C6.35 9.38192 6.35 9.15792 6.4372 8.9868C6.5139 8.83624 6.63628 8.71392 6.78681 8.6372C6.95794 8.55 7.182 8.55 7.63 8.55H9.87C10.3181 8.55 10.5421 8.55 10.7132 8.6372C10.8638 8.71392 10.9861 8.83624 11.0628 8.9868C11.15 9.15792 11.15 9.38192 11.15 9.83V15.75M0.75 6.55L7.982 1.126C8.25744 0.919447 8.39512 0.816167 8.54632 0.776351C8.67984 0.741215 8.82016 0.741215 8.95368 0.776359C9.10488 0.816167 9.24256 0.919447 9.518 1.126L16.75 6.55M2.35 5.35V13.19C2.35 14.0861 2.35 14.5342 2.52439 14.8764C2.67779 15.1774 2.92256 15.4222 3.22362 15.5756C3.56588 15.75 4.01392 15.75 4.91 15.75H12.59C13.4861 15.75 13.9342 15.75 14.2764 15.5756C14.5774 15.4222 14.8222 15.1774 14.9756 14.8764C15.15 14.5342 15.15 14.0861 15.15 13.19V5.35L10.286 1.702C9.7352 1.28889 9.45976 1.08234 9.15728 1.00271C8.89032 0.932431 8.60968 0.932431 8.34272 1.00271C8.04024 1.08234 7.7648 1.28889 7.214 1.702L2.35 5.35Z" stroke="#6B7280" stroke-width="1.5" stroke-linecap="round" stroke-linejoin="round"/>
</svg>
