<svg width="29" height="28" viewBox="0 0 29 28" fill="none" xmlns="http://www.w3.org/2000/svg">
<path fill-rule="evenodd" clip-rule="evenodd" d="M26.0799 3.42386C26.4519 3.24179 26.6059 2.79259 26.4239 2.42053C26.2418 2.04848 25.7926 1.89447 25.4205 2.07654L5.5002 11.8248V6.7502H4.0002V12.5588L1.92053 13.5765C1.54848 13.7586 1.39447 14.2078 1.57654 14.5799C1.7586 14.9519 2.20781 15.1059 2.57986 14.9239L4.0002 14.2288V23.7502C4.0002 24.7167 4.7837 25.5002 5.7502 25.5002H22.2502C23.2167 25.5002 24.0002 24.7167 24.0002 23.7502V4.44157L26.0799 3.42386ZM22.5002 5.17561L5.5002 13.4948V23.7502C5.5002 23.8883 5.61213 24.0002 5.7502 24.0002H10.0002V16.2502C10.0002 15.2837 10.7837 14.5002 11.7502 14.5002H16.2502C17.2167 14.5002 18.0002 15.2837 18.0002 16.2502V24.0002H22.2502C22.3883 24.0002 22.5002 23.8883 22.5002 23.7502V5.17561ZM16.5002 24.0002H11.5002V16.2502C11.5002 16.1121 11.6121 16.0002 11.7502 16.0002H16.2502C16.3883 16.0002 16.5002 16.1121 16.5002 16.2502V24.0002ZM20.2502 11.2502C20.8025 11.2502 21.2502 10.8025 21.2502 10.2502C21.2502 9.69791 20.8025 9.2502 20.2502 9.2502C19.6979 9.2502 19.2502 9.69791 19.2502 10.2502C19.2502 10.8025 19.6979 11.2502 20.2502 11.2502Z" fill="#898A8D"/>
</svg>
