<svg width="14" height="17" viewBox="0 0 14 17" fill="none" xmlns="http://www.w3.org/2000/svg">
    <path d="M10.0002 4.16665C10.0002 5.0507 9.64897 5.89855 9.02385 6.52367C8.39873 7.14879 7.55088 7.49998 6.66683 7.49998C5.78277 7.49998 4.93493 7.14879 4.30981 6.52367C3.68469 5.89855 3.3335 5.0507 3.3335 4.16665C3.3335 3.28259 3.68469 2.43474 4.30981 1.80962C4.93493 1.1845 5.78277 0.833313 6.66683 0.833313C7.55088 0.833313 8.39873 1.1845 9.02385 1.80962C9.64897 2.43474 10.0002 3.28259 10.0002 4.16665ZM6.66683 9.99998C5.11973 9.99998 3.636 10.6146 2.54204 11.7085C1.44808 12.8025 0.833496 14.2862 0.833496 15.8333H12.5002C12.5002 14.2862 11.8856 12.8025 10.7916 11.7085C9.69766 10.6146 8.21393 9.99998 6.66683 9.99998Z" stroke="#65758B" stroke-width="1.66667" stroke-linecap="round" stroke-linejoin="round"/>
</svg>
