<svg width="18" height="16" viewBox="0 0 18 16" fill="none" xmlns="http://www.w3.org/2000/svg">
<path d="M3.11021 0.857147C2.39981 0.857147 1.71851 1.13935 1.21618 1.64168C0.713846 2.14401 0.431641 2.82532 0.431641 3.53572V12.4643C0.431641 13.1747 0.713846 13.856 1.21618 14.3583C1.71851 14.8607 2.39981 15.1429 3.11021 15.1429H14.8931C15.6035 15.1429 16.2848 14.8607 16.7871 14.3583C17.2894 13.856 17.5716 13.1747 17.5716 12.4643V3.53572C17.5716 2.82532 17.2894 2.14401 16.7871 1.64168C16.2848 1.13935 15.6035 0.857147 14.8931 0.857147H3.11021ZM1.50307 3.53572C1.50307 3.10948 1.67239 2.70069 1.97379 2.3993C2.27519 2.0979 2.68397 1.92858 3.11021 1.92858H14.8931C15.3193 1.92858 15.7281 2.0979 16.0295 2.3993C16.3309 2.70069 16.5002 3.10948 16.5002 3.53572V12.4643C16.5002 12.8905 16.3309 13.2993 16.0295 13.6007C15.7281 13.9021 15.3193 14.0714 14.8931 14.0714H3.11093C2.68469 14.0714 2.2759 13.9021 1.9745 13.6007C1.67311 13.2993 1.50378 12.8905 1.50378 12.4643L1.50307 3.53572ZM6.14307 5.32215V10.6793C6.14314 10.8027 6.17519 10.924 6.23608 11.0313C6.29698 11.1387 6.38464 11.2284 6.49053 11.2918C6.59642 11.3551 6.71693 11.39 6.8403 11.3929C6.96367 11.3959 7.0857 11.3668 7.1945 11.3086L12.1945 8.63C12.3082 8.56892 12.4033 8.47815 12.4696 8.36734C12.5358 8.25653 12.5708 8.12983 12.5708 8.00072C12.5708 7.87161 12.5358 7.74491 12.4696 7.6341C12.4033 7.52329 12.3082 7.43252 12.1945 7.37143L7.1945 4.69286C7.08576 4.63464 6.96379 4.60557 6.84048 4.60849C6.71716 4.6114 6.59671 4.6462 6.49084 4.70949C6.38497 4.77278 6.29729 4.86241 6.23635 4.96965C6.1754 5.07689 6.14327 5.19809 6.14307 5.32143" fill="white"/>
</svg>
