<svg width="14" height="14" viewBox="0 0 14 14" fill="none" xmlns="http://www.w3.org/2000/svg">
    <path d="M11.3334 12.6667V2.00001C11.3334 1.64638 11.1929 1.30724 10.9429 1.0572C10.6928 0.807147 10.3537 0.666672 10.0001 0.666672H3.33341C2.97979 0.666672 2.64065 0.807147 2.39061 1.0572C2.14056 1.30724 2.00008 1.64638 2.00008 2.00001V12.6667M11.3334 12.6667H12.6667M11.3334 12.6667H8.00008M2.00008 12.6667H0.666748M2.00008 12.6667H5.33341M8.00008 12.6667V9.33334C8.00008 9.15653 7.92984 8.98696 7.80482 8.86193C7.6798 8.73691 7.51023 8.66667 7.33341 8.66667H6.00008C5.82327 8.66667 5.6537 8.73691 5.52868 8.86193C5.40365 8.98696 5.33341 9.15653 5.33341 9.33334V12.6667M8.00008 12.6667H5.33341M4.66675 3.33334H5.33341M4.66675 6.00001H5.33341M8.00008 3.33334H8.66675M8.00008 6.00001H8.66675" stroke="white" stroke-width="1.33333" stroke-linecap="round" stroke-linejoin="round"/>
</svg>
