<svg width="20" height="20" viewBox="0 0 20 20" fill="none" xmlns="http://www.w3.org/2000/svg">
<path d="M15.8333 16.6654H4.16667C3.72464 16.6654 3.30072 16.4898 2.98816 16.1772C2.67559 15.8646 2.5 15.4407 2.5 14.9987V7.4987C2.5 7.05667 2.67559 6.63275 2.98816 6.32019C3.30072 6.00763 3.72464 5.83203 4.16667 5.83203H15.8333C16.2754 5.83203 16.6993 6.00763 17.0118 6.32019C17.3244 6.63275 17.5 7.05667 17.5 7.4987V14.9987C17.5 15.4407 17.3244 15.8646 17.0118 16.1772C16.6993 16.4898 16.2754 16.6654 15.8333 16.6654Z" stroke="black" stroke-width="1.25"/>
<path d="M13.75 11.6654C13.6395 11.6654 13.5336 11.6215 13.4554 11.5433C13.3773 11.4652 13.3334 11.3592 13.3334 11.2487C13.3334 11.1382 13.3773 11.0322 13.4554 10.9541C13.5336 10.8759 13.6395 10.832 13.75 10.832C13.8605 10.832 13.9665 10.8759 14.0447 10.9541C14.1228 11.0322 14.1667 11.1382 14.1667 11.2487C14.1667 11.3592 14.1228 11.4652 14.0447 11.5433C13.9665 11.6215 13.8605 11.6654 13.75 11.6654Z" fill="black" stroke="black" stroke-width="1.25" stroke-linecap="round" stroke-linejoin="round"/>
<path d="M15 5.83232V4.66816C14.9999 4.41274 14.9412 4.16076 14.8282 3.93167C14.7153 3.70258 14.5512 3.50251 14.3487 3.34692C14.1461 3.19132 13.9105 3.08436 13.66 3.03429C13.4096 2.98422 13.151 2.99239 12.9042 3.05816L3.7375 5.50232C3.38254 5.59691 3.06878 5.80612 2.84499 6.09743C2.6212 6.38873 2.49992 6.74581 2.5 7.11316V7.49899" stroke="black" stroke-width="1.25"/>
</svg>
