<svg width="20" height="20" viewBox="0 0 20 20" fill="none" xmlns="http://www.w3.org/2000/svg">
<path d="M15.625 6.875H15V6.25C15 4.92392 14.4732 3.65215 13.5355 2.71447C12.5979 1.77678 11.3261 1.25 10 1.25C8.67392 1.25 7.40215 1.77678 6.46447 2.71447C5.52678 3.65215 5 4.92392 5 6.25V6.875H4.375C3.87772 6.875 3.40081 7.07254 3.04917 7.42417C2.69754 7.77581 2.5 8.25272 2.5 8.75V16.875C2.5 17.3723 2.69754 17.8492 3.04917 18.2008C3.40081 18.5525 3.87772 18.75 4.375 18.75H15.625C16.1223 18.75 16.5992 18.5525 16.9508 18.2008C17.3025 17.8492 17.5 17.3723 17.5 16.875V8.75C17.5 8.25272 17.3025 7.77581 16.9508 7.42417C16.5992 7.07254 16.1223 6.875 15.625 6.875ZM6.25 6.25C6.25 5.25544 6.64509 4.30161 7.34835 3.59835C8.05161 2.89509 9.00544 2.5 10 2.5C10.9946 2.5 11.9484 2.89509 12.6517 3.59835C13.3549 4.30161 13.75 5.25544 13.75 6.25V6.875H6.25V6.25ZM16.25 16.875C16.25 17.0408 16.1842 17.1997 16.0669 17.3169C15.9497 17.4342 15.7908 17.5 15.625 17.5H4.375C4.20924 17.5 4.05027 17.4342 3.93306 17.3169C3.81585 17.1997 3.75 17.0408 3.75 16.875V8.75C3.75 8.58424 3.81585 8.42527 3.93306 8.30806C4.05027 8.19085 4.20924 8.125 4.375 8.125H15.625C15.7908 8.125 15.9497 8.19085 16.0669 8.30806C16.1842 8.42527 16.25 8.58424 16.25 8.75V16.875Z" fill="black"/>
<path d="M10.0001 10C9.55838 9.99917 9.13058 10.1547 8.7925 10.4391C8.45442 10.7234 8.22789 11.1183 8.15303 11.5536C8.07817 11.989 8.15982 12.4368 8.3835 12.8178C8.60718 13.1987 8.95847 13.4882 9.37515 13.635V15C9.37515 15.1658 9.441 15.3247 9.55821 15.4419C9.67542 15.5592 9.83439 15.625 10.0001 15.625C10.1659 15.625 10.3249 15.5592 10.4421 15.4419C10.5593 15.3247 10.6251 15.1658 10.6251 15V13.635C11.0418 13.4882 11.3931 13.1987 11.6168 12.8178C11.8405 12.4368 11.9221 11.989 11.8473 11.5536C11.7724 11.1183 11.5459 10.7234 11.2078 10.4391C10.8697 10.1547 10.4419 9.99917 10.0001 10ZM10.0001 12.5C9.87654 12.5 9.7557 12.4633 9.65292 12.3947C9.55014 12.326 9.47003 12.2284 9.42273 12.1142C9.37542 12 9.36304 11.8743 9.38716 11.7531C9.41127 11.6318 9.4708 11.5205 9.55821 11.4331C9.64562 11.3457 9.75698 11.2861 9.87822 11.262C9.99946 11.2379 10.1251 11.2503 10.2393 11.2976C10.3535 11.3449 10.4511 11.425 10.5198 11.5278C10.5885 11.6306 10.6251 11.7514 10.6251 11.875C10.6251 12.0408 10.5593 12.1997 10.4421 12.3169C10.3249 12.4342 10.1659 12.5 10.0001 12.5Z" fill="black"/>
</svg>
