<svg width="20" height="20" viewBox="0 0 20 20" fill="none" xmlns="http://www.w3.org/2000/svg">
<g clip-path="url(#clip0_923_1766)">
<path d="M18.9775 19.0287H0.189575C0.189575 13.8469 4.4017 9.63477 9.58351 9.63477C9.79564 9.63477 9.97745 9.63477 10.1593 9.66507C15.129 9.9681 18.9775 14.059 18.9775 19.0287Z" stroke="black" stroke-width="1.04167" stroke-linecap="round" stroke-linejoin="round"/>
<path d="M16.0076 19.0297C15.8864 18.7872 16.0682 18.4842 16.0985 18.2115C16.0985 17.8781 15.947 17.5448 15.7046 17.3024C15.553 17.0903 15.3106 16.8478 15.0682 16.9387C14.9167 16.9993 14.7955 17.0903 14.7046 17.2115C14.1288 17.6963 13.2803 17.666 12.7652 17.0903C12.7046 16.9993 12.644 16.9387 12.5833 16.8478C12.5227 16.7266 12.4621 16.6054 12.4015 16.4842C12.3106 16.3933 12.2197 16.3024 12.0985 16.2418C11.7349 15.9084 11.5833 15.3933 11.6743 14.8781C11.7652 14.3933 11.9773 13.9387 12.2197 13.5145C12.2803 13.3933 12.3712 13.2721 12.4924 13.2418C12.6137 13.2115 12.7652 13.3024 12.8864 13.363C13.5227 13.7266 14.3409 13.5448 14.7955 12.969C14.8258 12.9084 14.8864 12.8478 14.947 12.8175C15.0682 12.7569 15.1894 12.8781 15.3106 12.9387C15.7046 13.1509 16.1288 13.2115 16.5833 13.0903C16.6743 13.06 16.7349 13.06 16.8258 13.0297M0.734863 15.8781C0.946984 15.9084 1.15911 15.8781 1.34092 15.7266C1.49244 15.6054 1.58335 15.4539 1.73486 15.363C2.00759 15.1812 2.37123 15.1509 2.70456 15.3024C3.00759 15.4539 3.25001 15.6963 3.40153 15.9993C3.49244 16.2418 3.64395 16.4539 3.85608 16.6054C4.0985 16.7569 4.46214 16.6963 4.70456 16.8781C4.85608 16.9993 4.97729 17.1812 5.03789 17.363C5.31062 17.8781 5.46214 18.4539 5.52274 19.0297M10.1591 9.66602C10.2197 9.96905 10.0682 10.3024 9.82577 10.4539C9.55305 10.6357 9.21971 10.7266 8.88638 10.7266C8.61365 10.666 8.34092 10.6963 8.0682 10.7569C7.61365 10.969 7.58335 11.666 7.15911 11.8781C7.00759 11.9387 6.85608 11.9387 6.73486 12.0297C6.31062 12.2418 6.31062 12.8478 6.00759 13.2115C5.70456 13.4539 5.28032 13.5751 4.91668 13.4842C4.52274 13.3933 4.1288 13.3933 3.76517 13.4539C3.40153 13.5751 3.0682 13.969 3.21971 14.3327C3.37123 14.6963 3.82577 14.7266 4.18941 14.6963C4.55305 14.666 4.97729 14.6054 5.25002 14.8478C5.58335 15.1509 5.49244 15.7569 5.85608 16.0297C6.15911 16.2115 6.55305 16.2115 6.85608 16.0297C7.15911 15.8478 7.49244 15.7266 7.85608 15.6963C8.73486 15.7266 9.0985 16.969 9.97729 17.2115C10.3106 17.3327 10.7046 17.2418 11.0379 17.363C11.6743 17.6054 11.8864 18.4539 11.6137 19.06" stroke="black" stroke-width="1.04167" stroke-linecap="round" stroke-linejoin="round"/>
<path d="M18.9775 19.0293H16.0078H11.5532H5.49261H0.189575" stroke="black" stroke-width="1.04167" stroke-linecap="round" stroke-linejoin="round"/>
<path d="M6.37108 6.75806C6.00744 6.72775 5.6135 6.66715 5.24986 6.60654L0.825621 5.33381L0.765015 3.93987L14.6438 3.42472C15.3711 3.39442 16.068 3.60654 16.6438 4.03078L17.0377 4.33381C17.0377 4.33381 18.765 4.48533 18.5529 5.54594C18.3408 6.60654 16.5832 6.81866 16.5832 6.81866H9.91653" stroke="black" stroke-width="1.04167" stroke-linecap="round" stroke-linejoin="round"/>
<path d="M0.765185 3.9404L0.340942 0.970703H1.76518L3.49246 3.84949" stroke="black" stroke-width="1.04167" stroke-linecap="round" stroke-linejoin="round"/>
<path d="M8.18903 5.30273L4.24963 8.48455L6.55266 8.63607L12.0678 5.66637" stroke="black" stroke-width="1.04167" stroke-linecap="round" stroke-linejoin="round"/>
</g>
<defs>
<clipPath id="clip0_923_1766">
<rect width="20" height="20" fill="white"/>
</clipPath>
</defs>
</svg>
