<svg width="20" height="20" viewBox="0 0 20 20" fill="none" xmlns="http://www.w3.org/2000/svg">
<path d="M1.66667 10L3.33333 10.8333M17.5 10.4167L15.8333 10.8333M6.25 14.5833L6.455 14.0717C6.75917 13.3108 6.91167 12.93 7.22917 12.715C7.54583 12.5 7.95583 12.5 8.77583 12.5H10.3908C11.2108 12.5 11.6208 12.5 11.9375 12.715C12.2542 12.93 12.4075 13.3108 12.7125 14.0717L12.9167 14.5833M1.25 14.1667V16.5683C1.25 16.8842 1.45 17.1725 1.76833 17.3133C1.97417 17.405 2.17083 17.5 2.40917 17.5H3.84083C4.07917 17.5 4.27583 17.405 4.4825 17.3133C4.79917 17.1725 5 16.8842 5 16.5683V15M14.1667 15V16.5683C14.1667 16.8842 14.3667 17.1725 14.685 17.3133C14.8908 17.405 15.0875 17.5 15.3258 17.5H16.7575C16.9958 17.5 17.1925 17.405 17.3992 17.3133C17.7158 17.1725 17.9167 16.8842 17.9167 16.5683V14.1667M16.25 7.08333L17.0833 6.66667M2.91667 7.08333L2.08333 6.66667M3.33333 7.5L4.24 4.77917C4.60667 3.67917 4.79 3.12917 5.22667 2.815C5.66333 2.50083 6.24333 2.5 7.4025 2.5H11.7642C12.9233 2.5 13.5033 2.5 13.9392 2.815C14.3767 3.12917 14.56 3.67917 14.9267 4.77917L15.8333 7.5" stroke="black" stroke-width="1.25" stroke-linecap="round" stroke-linejoin="round"/>
<path d="M3.33333 7.5H15.8333C16.6308 8.345 17.9167 9.52083 17.9167 10.8333V13.725C17.9167 14.2 17.6 14.6 17.1808 14.6558L14.5833 15H4.58333L1.98583 14.6558C1.56667 14.6017 1.25 14.2017 1.25 13.725V10.8333C1.25 9.52083 2.53583 8.345 3.33333 7.5Z" stroke="black" stroke-width="1.25" stroke-linecap="round" stroke-linejoin="round"/>
</svg>
