<svg width="20" height="20" viewBox="0 0 20 20" fill="none" xmlns="http://www.w3.org/2000/svg">
<path d="M6.45721 13.5717L13.6001 6.42885M0.714355 15.7146C0.714355 16.093 0.864472 16.4559 1.13176 16.7237C1.39906 16.9915 1.76168 17.1424 2.14007 17.1431H17.8601C18.2385 17.1424 18.6011 16.9915 18.8684 16.7237C19.1357 16.4559 19.2858 16.093 19.2858 15.7146V12.8089C18.669 12.6416 18.1244 12.2759 17.7361 11.7683C17.3478 11.2607 17.1374 10.6394 17.1374 10.0003C17.1374 9.36118 17.3478 8.73986 17.7361 8.23225C18.1244 7.72464 18.669 7.35897 19.2858 7.19171V4.28599C19.2858 3.90761 19.1357 3.54468 18.8684 3.27685C18.6011 3.00902 18.2385 2.85818 17.8601 2.85742H2.14007C1.76168 2.85818 1.39906 3.00902 1.13176 3.27685C0.864472 3.54468 0.714355 3.90761 0.714355 4.28599V7.18599C1.3361 7.34952 1.88619 7.71433 2.27873 8.22347C2.67126 8.7326 2.88416 9.35739 2.88416 10.0003C2.88416 10.6432 2.67126 11.268 2.27873 11.7771C1.88619 12.2862 1.3361 12.651 0.714355 12.8146V15.7146Z" stroke="black" stroke-width="1.42857" stroke-linecap="round" stroke-linejoin="round"/>
<path d="M7.17156 7.85826C7.361 7.85826 7.54268 7.783 7.67664 7.64905C7.81059 7.51509 7.88585 7.33341 7.88585 7.14397C7.88585 6.95453 7.81059 6.77285 7.67664 6.6389C7.54268 6.50494 7.361 6.42969 7.17156 6.42969C6.98212 6.42969 6.80044 6.50494 6.66648 6.6389C6.53253 6.77285 6.45728 6.95453 6.45728 7.14397C6.45728 7.33341 6.53253 7.51509 6.66648 7.64905C6.80044 7.783 6.98212 7.85826 7.17156 7.85826ZM12.8858 13.5725C13.0753 13.5725 13.257 13.4973 13.3909 13.3633C13.5249 13.2294 13.6001 13.0477 13.6001 12.8583C13.6001 12.6688 13.5249 12.4871 13.3909 12.3532C13.257 12.2192 13.0753 12.144 12.8858 12.144C12.6964 12.144 12.5147 12.2192 12.3808 12.3532C12.2468 12.4871 12.1716 12.6688 12.1716 12.8583C12.1716 13.0477 12.2468 13.2294 12.3808 13.3633C12.5147 13.4973 12.6964 13.5725 12.8858 13.5725Z" stroke="black" stroke-width="1.42857" stroke-linecap="round" stroke-linejoin="round"/>
</svg>
