<svg width="15" height="17" viewBox="0 0 15 17" fill="none" xmlns="http://www.w3.org/2000/svg">
    <path d="M9.99992 12.5H14.1666L12.9958 11.3292C12.8385 11.1719 12.7138 10.9852 12.6287 10.7797C12.5437 10.5743 12.4999 10.3541 12.4999 10.1317V7.5C12.5 6.46578 12.1796 5.45695 11.5826 4.61241C10.9857 3.76787 10.1416 3.12914 9.16659 2.78417V2.5C9.16659 2.05798 8.99099 1.63405 8.67843 1.32149C8.36587 1.00893 7.94195 0.833336 7.49992 0.833336C7.05789 0.833336 6.63397 1.00893 6.32141 1.32149C6.00885 1.63405 5.83325 2.05798 5.83325 2.5V2.78417C3.89159 3.47084 2.49992 5.32334 2.49992 7.5V10.1325C2.49992 10.5808 2.32159 11.0117 2.00409 11.3292L0.833252 12.5H4.99992M9.99992 12.5V13.3333C9.99992 13.9964 9.73653 14.6323 9.26769 15.1011C8.79884 15.5699 8.16296 15.8333 7.49992 15.8333C6.83688 15.8333 6.20099 15.5699 5.73215 15.1011C5.26331 14.6323 4.99992 13.9964 4.99992 13.3333V12.5M9.99992 12.5H4.99992" stroke="#65758B" stroke-width="1.66667" stroke-linecap="round" stroke-linejoin="round"/>
</svg>
