<svg width="20" height="20" viewBox="0 0 20 20" fill="none" xmlns="http://www.w3.org/2000/svg">
<path d="M13.75 16.8752C13.75 17.0409 13.6841 17.1999 13.5669 17.3171C13.4497 17.4343 13.2907 17.5002 13.125 17.5002H1.87496C1.7092 17.5002 1.55023 17.4343 1.43302 17.3171C1.31581 17.1999 1.24996 17.0409 1.24996 16.8752C1.24996 16.7094 1.31581 16.5504 1.43302 16.4332C1.55023 16.316 1.7092 16.2502 1.87496 16.2502H13.125C13.2907 16.2502 13.4497 16.316 13.5669 16.4332C13.6841 16.5504 13.75 16.7094 13.75 16.8752ZM19.364 7.27749C19.3477 7.36448 19.313 7.447 19.2624 7.5196C19.2117 7.59219 19.1463 7.6532 19.0703 7.69859L7.55386 14.5736C7.07382 14.8551 6.52756 15.0039 5.97105 15.0048C5.17833 15.0039 4.41591 14.7001 3.8398 14.1556L3.83043 14.1462L1.01558 11.3908C0.866654 11.2493 0.754867 11.0734 0.690107 10.8785C0.625348 10.6836 0.609612 10.4757 0.644291 10.2733C0.678969 10.0709 0.762994 9.88009 0.888935 9.71785C1.01488 9.55562 1.17885 9.42691 1.36637 9.34312L1.60074 9.22828C1.74875 9.15561 1.91948 9.14438 2.07574 9.19703L4.28355 9.94234L5.85933 8.98921L4.15387 7.33374C4.00049 7.19244 3.88491 7.01501 3.81764 6.81761C3.75037 6.62021 3.73356 6.40912 3.76874 6.20357C3.80392 5.99801 3.88997 5.80452 4.01905 5.64073C4.14813 5.47693 4.31614 5.34803 4.50777 5.26577L4.53277 5.25562L5.09136 5.0439C5.2322 4.99139 5.38725 4.99139 5.52808 5.0439L9.74215 6.59234L13.7711 4.18765C14.4131 3.80553 15.1712 3.66724 15.9068 3.79807C16.6424 3.92889 17.3064 4.32009 17.7773 4.90015L17.7867 4.91187L19.2429 6.77827C19.2973 6.84816 19.3363 6.9288 19.3571 7.01487C19.378 7.10093 19.3804 7.19045 19.364 7.27749ZM17.8218 6.98843L16.8062 5.68609C16.5235 5.34028 16.1262 5.10736 15.6863 5.02966C15.2465 4.95196 14.7934 5.03463 14.4093 5.26265L10.1281 7.8189C10.0479 7.86644 9.95816 7.89559 9.86535 7.90424C9.77253 7.91288 9.67895 7.90081 9.59136 7.8689L5.31246 6.29546L4.99996 6.41499L5.01637 6.43062L7.31011 8.6564C7.37862 8.72296 7.43095 8.80434 7.4631 8.89428C7.49525 8.98422 7.50636 9.08033 7.49557 9.17524C7.48478 9.27014 7.45239 9.36131 7.40087 9.44174C7.34936 9.52217 7.28009 9.58972 7.1984 9.63921L4.68199 11.1619C4.60414 11.2089 4.51698 11.2383 4.42657 11.2482C4.33616 11.258 4.2447 11.248 4.15855 11.2189L1.91871 10.4634L1.90387 10.4712L1.87496 10.4845C1.87872 10.4872 1.88213 10.4904 1.88512 10.4939L4.69762 13.2486C4.99113 13.5244 5.36612 13.6977 5.76641 13.7425C6.16669 13.7873 6.57071 13.7012 6.91793 13.497L17.8218 6.98843Z" fill="black"/>
</svg>
