<svg width="32" height="32" viewBox="0 0 32 32" fill="none" xmlns="http://www.w3.org/2000/svg">
<path d="M2.05333 12.2533C2.06 12.28 2.08 12.2933 2.09333 12.32C2.12 12.3667 2.14 12.4133 2.17333 12.4533L15.5067 27.12C15.5133 27.1333 15.5333 27.1333 15.54 27.1467C15.5867 27.1933 15.64 27.2267 15.6933 27.26C15.7133 27.2733 15.7333 27.28 15.7533 27.2933C15.8333 27.3133 15.9133 27.3333 16 27.3333C16.0867 27.3333 16.1667 27.3133 16.24 27.28C16.26 27.2733 16.28 27.26 16.3 27.2467C16.36 27.22 16.4067 27.18 16.4533 27.1333C16.4667 27.12 16.48 27.12 16.4867 27.1067L29.82 12.44C29.8533 12.4 29.88 12.3533 29.9 12.3067C29.9133 12.2867 29.9333 12.2667 29.94 12.24C29.9733 12.16 29.9867 12.08 29.9867 12C29.9867 11.9933 29.9867 11.9933 29.9867 11.9933C29.9867 11.9733 29.98 11.9533 29.9733 11.9333C29.9667 11.8733 29.96 11.8133 29.94 11.76C29.9267 11.7267 29.9067 11.7 29.8867 11.6667C29.8667 11.64 29.86 11.6067 29.84 11.5733L24.5067 4.90666C24.5 4.9 24.4867 4.89333 24.48 4.88666C24.44 4.84 24.3867 4.80666 24.3333 4.77333C24.3067 4.75333 24.28 4.73333 24.2533 4.72C24.2467 4.71333 24.24 4.70666 24.2333 4.70666C24.1667 4.68 24.1067 4.67333 24.04 4.67333C24.0333 4.68 24.02 4.66666 24 4.66666H8C7.98 4.66666 7.96 4.68 7.94 4.68C7.88 4.68666 7.81333 4.68666 7.75333 4.71333C7.74667 4.71333 7.74 4.72666 7.73333 4.72666C7.7 4.74 7.68 4.76 7.65333 4.78C7.6 4.81333 7.54667 4.84666 7.50667 4.89333C7.5 4.9 7.48667 4.90666 7.48 4.91333L2.14667 11.58C2.12667 11.6067 2.11333 11.64 2.1 11.6733C2.08 11.7067 2.06 11.7333 2.04667 11.7667C2.02667 11.8267 2.01333 11.88 2.01333 11.94C2.00667 11.96 2 11.98 2 12C2 12.0067 2 12.0067 2 12.0067C2 12.0933 2.02 12.1733 2.05333 12.2533ZM4.17333 12.6667H10.2L14.22 23.7133L4.17333 12.6667ZM16 24.7133L11.62 12.6667H20.38L16 24.7133ZM17.78 23.7133L21.8 12.6667H27.8267L17.78 23.7133ZM24.1933 6.64L27.9467 11.3333H22.32L24.1933 6.64ZM23.0133 6L21.14 10.6933L17.3867 6H23.0133ZM19.9467 11.3333H12.0533L16 6.4L19.9467 11.3333ZM14.6133 6L10.86 10.6933L8.98667 6H14.6133ZM7.80667 6.64L9.68 11.3333H4.05333L7.80667 6.64Z" fill="#488FE9"/>
</svg>
