<svg width="20" height="20" viewBox="0 0 20 20" fill="none" xmlns="http://www.w3.org/2000/svg">
<path d="M9.64915 10.0466C11.8482 10.0466 13.6308 8.26393 13.6308 6.06492C13.6308 3.8659 11.8482 2.08325 9.64915 2.08325C7.45013 2.08325 5.66748 3.8659 5.66748 6.06492C5.66748 8.26393 7.45013 10.0466 9.64915 10.0466Z" stroke="#200E32" stroke-width="1.25" stroke-linecap="round" stroke-linejoin="round"/>
<path fill-rule="evenodd" clip-rule="evenodd" d="M3.33351 15.5844C3.33245 15.3045 3.39505 15.028 3.51659 14.7758C3.89798 14.0131 4.97349 13.6088 5.86594 13.4257C6.50957 13.2884 7.1621 13.1966 7.81865 13.1511C9.03421 13.0444 10.2568 13.0444 11.4723 13.1511C12.1288 13.1971 12.7813 13.2889 13.4251 13.4257C14.3175 13.6088 15.393 13.9749 15.7744 14.7758C16.0188 15.2898 16.0188 15.8866 15.7744 16.4006C15.393 17.2015 14.3175 17.5676 13.4251 17.743C12.7822 17.8861 12.1294 17.9804 11.4723 18.0253C10.483 18.1091 9.489 18.1244 8.49752 18.071C8.26869 18.071 8.04748 18.071 7.81865 18.0253C7.16404 17.981 6.51377 17.8866 5.87357 17.743C4.97349 17.5676 3.90561 17.2015 3.51659 16.4006C3.39567 16.1455 3.33314 15.8667 3.33351 15.5844Z" stroke="#200E32" stroke-width="1.25" stroke-linecap="round" stroke-linejoin="round"/>
</svg>
