<svg width="17" height="17" viewBox="0 0 17 17" fill="none" xmlns="http://www.w3.org/2000/svg">
    <path d="M15.8335 15.8333L10.8335 10.8333M12.5002 6.66665C12.5002 7.43269 12.3493 8.19123 12.0561 8.89897C11.763 9.6067 11.3333 10.2498 10.7916 10.7914C10.2499 11.3331 9.60688 11.7628 8.89915 12.0559C8.19142 12.3491 7.43287 12.5 6.66683 12.5C5.90079 12.5 5.14224 12.3491 4.43451 12.0559C3.72678 11.7628 3.08371 11.3331 2.54204 10.7914C2.00036 10.2498 1.57068 9.6067 1.27753 8.89897C0.98438 8.19123 0.833496 7.43269 0.833496 6.66665C0.833496 5.11955 1.44808 3.63582 2.54204 2.54186C3.636 1.44789 5.11973 0.833313 6.66683 0.833313C8.21393 0.833313 9.69766 1.44789 10.7916 2.54186C11.8856 3.63582 12.5002 5.11955 12.5002 6.66665Z" stroke="#05A8C7" stroke-width="1.66667" stroke-linecap="round" stroke-linejoin="round"/>
</svg>
