<svg width="26" height="26" viewBox="0 0 26 26" fill="none" xmlns="http://www.w3.org/2000/svg">
<path fill-rule="evenodd" clip-rule="evenodd" d="M4.75998 11.24C4.75998 7.79374 7.55372 5 11 5C14.4462 5 17.24 7.79374 17.24 11.24C17.24 14.6863 14.4462 17.48 11 17.48C7.55372 17.48 4.75998 14.6863 4.75998 11.24ZM11 2.92C6.40497 2.92 2.67998 6.64499 2.67998 11.24C2.67998 15.835 6.40497 19.56 11 19.56C12.9226 19.56 14.693 18.9078 16.1018 17.8126L20.6646 22.3754C21.0707 22.7815 21.7292 22.7815 22.1354 22.3754C22.5415 21.9692 22.5415 21.3107 22.1354 20.9046L17.5726 16.3419C18.6678 14.933 19.32 13.1627 19.32 11.24C19.32 6.64499 15.595 2.92 11 2.92Z" fill="black"/>
</svg>
