<svg width="32" height="32" viewBox="0 0 32 32" fill="none" xmlns="http://www.w3.org/2000/svg">
<path d="M19.7497 18.5001C19.3328 18.4999 18.9201 18.5835 18.536 18.7457C18.1519 18.9079 17.8043 19.1456 17.5138 19.4446L13.9122 17.1297C14.1955 16.4033 14.1955 15.5969 13.9122 14.8704L17.5138 12.5555C18.0547 13.1097 18.7822 13.4432 19.5551 13.4915C20.3281 13.5398 21.0914 13.2993 21.6971 12.8167C22.3028 12.3342 22.7078 11.6439 22.8335 10.8797C22.9592 10.1156 22.7966 9.33196 22.3774 8.68082C21.9581 8.02968 21.312 7.55741 20.5644 7.35557C19.8167 7.15373 19.0207 7.23669 18.3307 7.58839C17.6408 7.94008 17.106 8.53544 16.83 9.25904C16.5541 9.98264 16.5566 10.7829 16.8372 11.5047L13.2356 13.8196C12.8019 13.3743 12.2453 13.0685 11.6369 12.9413C11.0285 12.814 10.396 12.8711 9.82019 13.1051C9.24438 13.3392 8.75147 13.7397 8.40445 14.2554C8.05743 14.771 7.87207 15.3785 7.87207 16.0001C7.87207 16.6216 8.05743 17.2291 8.40445 17.7447C8.75147 18.2604 9.24438 18.6609 9.82019 18.895C10.396 19.1291 11.0285 19.1861 11.6369 19.0589C12.2453 18.9316 12.8019 18.6258 13.2356 18.1805L16.8372 20.4954C16.5959 21.1177 16.5602 21.8008 16.7353 22.4449C16.9104 23.0889 17.2871 23.66 17.8102 24.0745C18.3334 24.4889 18.9755 24.725 19.6425 24.7482C20.3095 24.7713 20.9664 24.5803 21.517 24.2031C22.0676 23.8259 22.483 23.2823 22.7023 22.6519C22.9216 22.0216 22.9334 21.3376 22.7358 20.7C22.5383 20.0625 22.1418 19.505 21.6044 19.1091C21.0671 18.7133 20.4171 18.4998 19.7497 18.5001ZM19.7497 8.50006C20.1205 8.50006 20.4831 8.61003 20.7914 8.81606C21.0997 9.02208 21.3401 9.31492 21.482 9.65753C21.6239 10.0001 21.661 10.3771 21.5887 10.7409C21.5163 11.1046 21.3377 11.4387 21.0755 11.7009C20.8133 11.9631 20.4792 12.1417 20.1155 12.214C19.7518 12.2864 19.3748 12.2492 19.0322 12.1073C18.6896 11.9654 18.3967 11.7251 18.1907 11.4168C17.9847 11.1084 17.8747 10.7459 17.8747 10.3751C17.8747 9.87778 18.0722 9.40087 18.4239 9.04924C18.7755 8.69761 19.2524 8.50006 19.7497 8.50006ZM10.9997 17.8751C10.6289 17.8751 10.2663 17.7651 9.95801 17.5591C9.64966 17.353 9.40934 17.0602 9.26743 16.7176C9.12551 16.375 9.08838 15.998 9.16073 15.6343C9.23307 15.2706 9.41165 14.9365 9.67387 14.6742C9.9361 14.412 10.2702 14.2334 10.6339 14.1611C10.9976 14.0887 11.3746 14.1259 11.7172 14.2678C12.0598 14.4097 12.3527 14.65 12.5587 14.9584C12.7647 15.2667 12.8747 15.6292 12.8747 16.0001C12.8747 16.4973 12.6772 16.9743 12.3255 17.3259C11.9739 17.6775 11.497 17.8751 10.9997 17.8751ZM19.7497 23.5001C19.3789 23.5001 19.0163 23.3901 18.708 23.1841C18.3997 22.978 18.1593 22.6852 18.0174 22.3426C17.8755 22 17.8384 21.623 17.9107 21.2593C17.9831 20.8955 18.1617 20.5615 18.4239 20.2992C18.6861 20.037 19.0202 19.8584 19.3839 19.7861C19.7476 19.7137 20.1246 19.7509 20.4672 19.8928C20.8098 20.0347 21.1027 20.275 21.3087 20.5834C21.5147 20.8917 21.6247 21.2542 21.6247 21.6251C21.6247 22.1223 21.4272 22.5993 21.0755 22.9509C20.7239 23.3025 20.247 23.5001 19.7497 23.5001Z" fill="black"/>
</svg>
