<svg width="20" height="20" viewBox="0 0 20 20" fill="none" xmlns="http://www.w3.org/2000/svg">
<path fill-rule="evenodd" clip-rule="evenodd" d="M2.32141 1.42969C1.63106 1.42969 1.07141 1.98933 1.07141 2.67969V17.3225C1.07141 18.0129 1.63105 18.5725 2.32141 18.5725H4.46427C5.15462 18.5725 5.71427 18.0129 5.71427 17.3225V17.144H16.6071H18.0357V16.0725H17.1428V3.57254H18.0357V2.50112H16.6071H6.77304C6.68639 1.89535 6.16542 1.42969 5.5357 1.42969H2.32141ZM16.0714 16.0725H5.71427V14.7333L6.11997 14.429C6.42281 14.2019 6.83597 14.1904 7.15095 14.4004L7.7182 14.7785C8.33726 15.1912 9.13636 15.2188 9.78235 14.8496L10.7492 14.2971C11.0428 14.1294 11.4061 14.1419 11.6874 14.3295L12.4415 14.8322C13.0016 15.2055 13.7138 15.2661 14.3289 14.9928L16.0714 14.2183V16.0725ZM16.0714 11.7183V13.0458L13.8937 14.0137C13.6141 14.1379 13.2904 14.1104 13.0358 13.9407L12.2818 13.438C11.6627 13.0253 10.8636 12.9978 10.2176 13.3669L9.25077 13.9194C8.95714 14.0872 8.59391 14.0746 8.31252 13.8871L7.74527 13.5089C7.13005 13.0987 6.34456 13.0726 5.70982 13.4216C5.69281 13.0896 5.62716 12.7633 5.51613 12.4528L6.12609 11.9649C6.42971 11.722 6.8556 11.7035 7.17912 11.9192L7.7182 12.2785C8.33726 12.6912 9.13636 12.7188 9.78235 12.3496L10.7492 11.7971C11.0428 11.6294 11.4061 11.6419 11.6874 11.8295L12.4415 12.3322C13.0016 12.7055 13.7138 12.7661 14.3289 12.4928L16.0714 11.7183ZM16.0714 3.57254V10.5458L13.8937 11.5137C13.6141 11.6379 13.2904 11.6104 13.0358 11.4407L12.2818 10.938C11.6627 10.5253 10.8636 10.4978 10.2176 10.8669L9.25077 11.4194C8.95714 11.5872 8.59391 11.5746 8.31252 11.3871L7.77344 11.0277C7.06171 10.5532 6.12473 10.5938 5.45677 11.1282L4.99345 11.4989L4.07721 10.2161L5.92869 8.13321C6.48075 7.51214 6.7857 6.71008 6.7857 5.87912V3.57254H16.0714ZM5.1279 7.42139L3.15227 9.64397H2.14284V2.67969C2.14284 2.58107 2.22279 2.50112 2.32141 2.50112H5.5357C5.63432 2.50112 5.71427 2.58107 5.71427 2.67969V5.87912C5.71427 6.44767 5.50562 6.99645 5.1279 7.42139ZM2.14284 17.3225V10.7154H3.11715L4.21044 12.246C4.49166 12.6397 4.64284 13.1115 4.64284 13.5953V17.3225C4.64284 17.4212 4.56289 17.5011 4.46427 17.5011H2.32141C2.22279 17.5011 2.14284 17.4212 2.14284 17.3225ZM12.6786 8.75112C13.6648 8.75112 14.4643 7.95162 14.4643 6.9654C14.4643 5.97918 13.6648 5.17969 12.6786 5.17969C11.6923 5.17969 10.8928 5.97918 10.8928 6.9654C10.8928 7.95162 11.6923 8.75112 12.6786 8.75112ZM13.3928 6.9654C13.3928 7.35989 13.073 7.67969 12.6786 7.67969C12.2841 7.67969 11.9643 7.35989 11.9643 6.9654C11.9643 6.57091 12.2841 6.25112 12.6786 6.25112C13.073 6.25112 13.3928 6.57091 13.3928 6.9654Z" fill="black"/>
</svg>
