<svg width="15" height="15" viewBox="0 0 15 15" fill="none" xmlns="http://www.w3.org/2000/svg">
<path d="M6.84199 1.21124C7.04708 0.795697 7.63963 0.795695 7.84472 1.21124L9.55454 4.67572C9.63598 4.84073 9.7934 4.9551 9.9755 4.98157L13.7988 5.53712C14.2574 5.60376 14.4405 6.16731 14.1086 6.49076L11.3421 9.18748C11.2103 9.31593 11.1502 9.50099 11.1813 9.68236L11.8344 13.4902C11.9127 13.9469 11.4333 14.2952 11.0232 14.0796L7.60353 12.2818C7.44065 12.1961 7.24606 12.1961 7.08319 12.2818L3.66354 14.0796C3.25338 14.2952 2.77399 13.9469 2.85232 13.4902L3.50542 9.68236C3.53652 9.50099 3.4764 9.31593 3.34462 9.18748L0.578075 6.49076C0.246243 6.16731 0.429351 5.60376 0.887932 5.53712L4.71121 4.98157C4.89331 4.9551 5.05073 4.84073 5.13217 4.67572L6.84199 1.21124Z" fill="#DDDDDD"/>
</svg>
