<svg width="10" height="10" viewBox="0 0 10 10" fill="none" xmlns="http://www.w3.org/2000/svg">
<path fill-rule="evenodd" clip-rule="evenodd" d="M4.89492 0.21787L3.67711 2.89531L0.719076 3.30178C0.661847 3.30943 0.608034 3.3334 0.564082 3.37085C0.520129 3.40829 0.4879 3.4576 0.471254 3.51289C0.454608 3.56817 0.45425 3.62709 0.470223 3.68257C0.486197 3.73805 0.517824 3.78776 0.561318 3.82573L2.77043 5.78036L2.20381 8.74362C2.19314 8.80028 2.19901 8.85881 2.2207 8.91222C2.2424 8.96563 2.279 9.01167 2.32615 9.04484C2.37331 9.07801 2.42901 9.09691 2.48661 9.09928C2.54421 9.10165 2.60127 9.0874 2.65099 9.05821L5.22714 7.53465L7.8317 9.01438C7.88191 9.04272 7.93921 9.056 7.99676 9.05266C8.05431 9.04931 8.10969 9.02947 8.15627 8.99551C8.20285 8.96155 8.23868 8.91489 8.25946 8.86112C8.28025 8.80735 8.28512 8.74873 8.2735 8.69227L7.65682 5.73901L9.83254 3.74729C9.87452 3.70823 9.90444 3.65797 9.91876 3.60246C9.93309 3.54694 9.93123 3.48848 9.9134 3.43399C9.89556 3.3795 9.86251 3.33125 9.81813 3.29495C9.77375 3.25864 9.71991 3.2358 9.66296 3.22911L6.69845 2.86974L5.43852 0.213271C5.41418 0.161039 5.37534 0.116909 5.32662 0.0861456C5.27789 0.0553823 5.22135 0.0392843 5.16373 0.0397718C5.10611 0.0402593 5.04984 0.0573118 5.00165 0.0888951C4.95345 0.120478 4.91536 0.165259 4.89191 0.217896L4.89492 0.21787Z" fill="#222222"/>
</svg>
