<svg width="12" height="12" viewBox="0 0 12 12" fill="none" xmlns="http://www.w3.org/2000/svg">
<g clip-path="url(#clip0_244_1593)">
<path fill-rule="evenodd" clip-rule="evenodd" d="M5.66215 0.592325L4.1134 3.92232L0.415897 4.39857C0.344364 4.40751 0.276923 4.43688 0.221652 4.48317C0.166381 4.52945 0.125621 4.59068 0.104253 4.65953C0.082886 4.72838 0.0818168 4.80193 0.101174 4.87137C0.120531 4.94081 0.159494 5.00321 0.213397 5.05107L2.9509 7.51482L2.21215 11.2086C2.19823 11.2792 2.20494 11.3523 2.23146 11.4192C2.25798 11.4862 2.3032 11.544 2.36172 11.5859C2.42024 11.6279 2.48958 11.652 2.56147 11.6556C2.63336 11.6592 2.70476 11.642 2.76715 11.6061L5.99965 9.73107L9.2359 11.6061C9.29828 11.642 9.36968 11.6592 9.44157 11.6556C9.51346 11.652 9.58281 11.6279 9.64133 11.5859C9.69984 11.544 9.74506 11.4862 9.77159 11.4192C9.79811 11.3523 9.80481 11.2792 9.7909 11.2086L9.05215 7.51482L11.7896 5.05107C11.8425 5.00275 11.8804 4.94032 11.8988 4.87116C11.9173 4.802 11.9156 4.72899 11.8939 4.66077C11.8722 4.59255 11.8315 4.53196 11.7764 4.48616C11.7214 4.44036 11.6544 4.41127 11.5834 4.40232L7.8859 3.92232L6.3409 0.592325C6.31107 0.526854 6.26303 0.471346 6.20253 0.432423C6.14202 0.393499 6.07159 0.372803 5.99965 0.372803C5.9277 0.372803 5.85727 0.393499 5.79677 0.432423C5.73626 0.471346 5.68823 0.526854 5.6584 0.592325H5.66215Z" fill="black"/>
</g>
<defs>
<clipPath id="clip0_244_1593">
<rect width="12" height="12" fill="white"/>
</clipPath>
</defs>
</svg>
