<svg width="15" height="15" viewBox="0 0 15 15" fill="none" xmlns="http://www.w3.org/2000/svg">
<path d="M7.15535 1.21124C7.36043 0.795697 7.95299 0.795695 8.15807 1.21124L9.86789 4.67572C9.94933 4.84073 10.1068 4.9551 10.2889 4.98157L14.1121 5.53712C14.5707 5.60376 14.7538 6.16731 14.422 6.49076L11.6554 9.18748C11.5237 9.31593 11.4635 9.50099 11.4946 9.68236L12.1477 13.4902C12.2261 13.9469 11.7467 14.2952 11.3365 14.0796L7.91688 12.2818C7.754 12.1961 7.55942 12.1961 7.39654 12.2818L3.9769 14.0796C3.56673 14.2952 3.08734 13.9469 3.16568 13.4902L3.81877 9.68236C3.84988 9.50099 3.78975 9.31593 3.65798 9.18748L0.89143 6.49076C0.559598 6.16731 0.742706 5.60376 1.20129 5.53712L5.02456 4.98157C5.20667 4.9551 5.36409 4.84073 5.44553 4.67572L7.15535 1.21124Z" fill="#F5593D"/>
</svg>
