<svg width="346" height="38" viewBox="0 0 346 38" fill="none" xmlns="http://www.w3.org/2000/svg">
<path d="M23 10L101 10" stroke="#488FE9" stroke-linecap="round"/>
<path d="M101 10L172 9.99999" stroke="#488FE9" stroke-linecap="round"/>
<path d="M172 10L244 9.99999" stroke="#488FE9" stroke-linecap="round"/>
<path d="M244 10L315 10" stroke="#488FE9" stroke-linecap="round"/>
<circle cx="29.5" cy="10" r="6" fill="#488FE9"/>
<path d="M16.8395 30.0923H15.7315C15.6889 29.8556 15.6096 29.6473 15.4936 29.4673C15.3776 29.2874 15.2356 29.1347 15.0675 29.0092C14.8994 28.8838 14.7112 28.7891 14.5028 28.7251C14.2969 28.6612 14.0779 28.6293 13.8459 28.6293C13.4268 28.6293 13.0516 28.7346 12.7202 28.9453C12.3911 29.156 12.1307 29.465 11.9389 29.8722C11.7495 30.2794 11.6548 30.7765 11.6548 31.3636C11.6548 31.9555 11.7495 32.455 11.9389 32.8622C12.1307 33.2694 12.3923 33.5772 12.7237 33.7855C13.0552 33.9938 13.428 34.098 13.8423 34.098C14.072 34.098 14.2898 34.0672 14.4957 34.0057C14.7041 33.9418 14.8923 33.8482 15.0604 33.7251C15.2285 33.602 15.3705 33.4517 15.4865 33.2741C15.6049 33.0942 15.6866 32.8883 15.7315 32.6562L16.8395 32.6598C16.7803 33.0173 16.6655 33.3464 16.495 33.647C16.3269 33.9453 16.1103 34.2034 15.8452 34.4212C15.5824 34.6366 15.2817 34.8035 14.9432 34.9219C14.6046 35.0402 14.2353 35.0994 13.8352 35.0994C13.2055 35.0994 12.6444 34.9503 12.152 34.652C11.6596 34.3513 11.2713 33.9216 10.9872 33.3629C10.7055 32.8042 10.5646 32.1378 10.5646 31.3636C10.5646 30.5871 10.7067 29.9207 10.9908 29.3643C11.2749 28.8056 11.6631 28.3771 12.1555 28.0788C12.648 27.7782 13.2079 27.6278 13.8352 27.6278C14.2211 27.6278 14.581 27.6835 14.9148 27.7947C15.2509 27.9036 15.5528 28.0646 15.8203 28.2777C16.0878 28.4884 16.3092 28.7464 16.4844 29.0518C16.6596 29.3549 16.7779 29.7017 16.8395 30.0923ZM20.3649 35.1101C19.8535 35.1101 19.4073 34.9929 19.0261 34.7585C18.6449 34.5241 18.349 34.1963 18.1383 33.7749C17.9276 33.3535 17.8223 32.861 17.8223 32.2976C17.8223 31.7318 17.9276 31.237 18.1383 30.8132C18.349 30.3894 18.6449 30.0604 19.0261 29.826C19.4073 29.5916 19.8535 29.4744 20.3649 29.4744C20.8762 29.4744 21.3225 29.5916 21.7037 29.826C22.0848 30.0604 22.3807 30.3894 22.5914 30.8132C22.8021 31.237 22.9075 31.7318 22.9075 32.2976C22.9075 32.861 22.8021 33.3535 22.5914 33.7749C22.3807 34.1963 22.0848 34.5241 21.7037 34.7585C21.3225 34.9929 20.8762 35.1101 20.3649 35.1101ZM20.3684 34.2188C20.6999 34.2188 20.9745 34.1312 21.1923 33.956C21.4101 33.7808 21.5711 33.5476 21.6752 33.2564C21.7818 32.9652 21.835 32.6444 21.835 32.294C21.835 31.946 21.7818 31.6264 21.6752 31.3352C21.5711 31.0417 21.4101 30.8061 21.1923 30.6286C20.9745 30.451 20.6999 30.3622 20.3684 30.3622C20.0346 30.3622 19.7576 30.451 19.5375 30.6286C19.3197 30.8061 19.1575 31.0417 19.051 31.3352C18.9468 31.6264 18.8947 31.946 18.8947 32.294C18.8947 32.6444 18.9468 32.9652 19.051 33.2564C19.1575 33.5476 19.3197 33.7808 19.5375 33.956C19.7576 34.1312 20.0346 34.2188 20.3684 34.2188ZM25.1545 31.7614V35H24.0927V29.5455H25.1119V30.4332H25.1793C25.3048 30.1444 25.5013 29.9124 25.7688 29.7372C26.0387 29.562 26.3784 29.4744 26.788 29.4744C27.1597 29.4744 27.4852 29.5526 27.7646 29.7088C28.0439 29.8627 28.2605 30.0923 28.4144 30.3977C28.5683 30.7031 28.6452 31.0807 28.6452 31.5305V35H27.5835V31.6584C27.5835 31.263 27.4805 30.9541 27.2745 30.7315C27.0685 30.5066 26.7856 30.3942 26.4258 30.3942C26.1796 30.3942 25.9606 30.4474 25.7688 30.554C25.5794 30.6605 25.4291 30.8168 25.3178 31.0227C25.2089 31.2263 25.1545 31.4725 25.1545 31.7614ZM32.6154 29.5455V30.3977H29.636V29.5455H32.6154ZM30.435 28.2386H31.4968V33.3984C31.4968 33.6044 31.5276 33.7595 31.5891 33.8636C31.6507 33.9654 31.73 34.0353 31.8271 34.0732C31.9265 34.1087 32.0342 34.1264 32.1502 34.1264C32.2354 34.1264 32.31 34.1205 32.3739 34.1087C32.4379 34.0968 32.4876 34.0874 32.5231 34.0803L32.7148 34.9574C32.6533 34.9811 32.5657 35.0047 32.4521 35.0284C32.3384 35.0545 32.1964 35.0687 32.0259 35.071C31.7466 35.0758 31.4862 35.026 31.2447 34.9219C31.0032 34.8177 30.8079 34.6567 30.6587 34.4389C30.5096 34.2211 30.435 33.9477 30.435 33.6186V28.2386ZM36.0822 35.1101C35.5448 35.1101 35.082 34.9953 34.6937 34.7656C34.3078 34.5336 34.0095 34.2081 33.7988 33.7891C33.5905 33.3677 33.4863 32.8741 33.4863 32.3082C33.4863 31.7495 33.5905 31.2571 33.7988 30.831C34.0095 30.4048 34.3031 30.0722 34.6795 29.8331C35.0583 29.594 35.501 29.4744 36.0076 29.4744C36.3154 29.4744 36.6137 29.5253 36.9025 29.6271C37.1913 29.7289 37.4506 29.8887 37.6802 30.1065C37.9099 30.3243 38.091 30.6072 38.2235 30.9553C38.3561 31.3009 38.4224 31.7211 38.4224 32.2159V32.5923H34.0865V31.7969H37.3819C37.3819 31.5175 37.3251 31.2701 37.2115 31.0547C37.0978 30.8369 36.938 30.6652 36.7321 30.5398C36.5285 30.4143 36.2894 30.3516 36.0147 30.3516C35.7164 30.3516 35.456 30.425 35.2335 30.5717C35.0133 30.7161 34.8429 30.9055 34.7221 31.1399C34.6038 31.3719 34.5446 31.6241 34.5446 31.8963V32.5178C34.5446 32.8823 34.6085 33.1925 34.7363 33.4482C34.8665 33.7038 35.0476 33.8991 35.2797 34.0341C35.5117 34.1667 35.7827 34.233 36.0929 34.233C36.2941 34.233 36.4776 34.2045 36.6433 34.1477C36.809 34.0885 36.9522 34.0009 37.073 33.8849C37.1937 33.7689 37.286 33.6257 37.35 33.4553L38.3549 33.6364C38.2744 33.9323 38.13 34.1915 37.9217 34.4141C37.7157 34.6342 37.4565 34.8059 37.144 34.929C36.8339 35.0497 36.4799 35.1101 36.0822 35.1101ZM40.6623 31.7614V35H39.6005V29.5455H40.6197V30.4332H40.6871C40.8126 30.1444 41.0091 29.9124 41.2766 29.7372C41.5465 29.562 41.8862 29.4744 42.2958 29.4744C42.6675 29.4744 42.993 29.5526 43.2724 29.7088C43.5517 29.8627 43.7683 30.0923 43.9222 30.3977C44.0761 30.7031 44.1531 31.0807 44.1531 31.5305V35H43.0913V31.6584C43.0913 31.263 42.9883 30.9541 42.7823 30.7315C42.5763 30.5066 42.2934 30.3942 41.9336 30.3942C41.6874 30.3942 41.4684 30.4474 41.2766 30.554C41.0872 30.6605 40.9369 30.8168 40.8256 31.0227C40.7167 31.2263 40.6623 31.4725 40.6623 31.7614ZM48.1232 29.5455V30.3977H45.1438V29.5455H48.1232ZM45.9428 28.2386H47.0046V33.3984C47.0046 33.6044 47.0354 33.7595 47.0969 33.8636C47.1585 33.9654 47.2378 34.0353 47.3349 34.0732C47.4343 34.1087 47.542 34.1264 47.658 34.1264C47.7433 34.1264 47.8178 34.1205 47.8817 34.1087C47.9457 34.0968 47.9954 34.0874 48.0309 34.0803L48.2227 34.9574C48.1611 34.9811 48.0735 35.0047 47.9599 35.0284C47.8462 35.0545 47.7042 35.0687 47.5337 35.071C47.2544 35.0758 46.994 35.026 46.7525 34.9219C46.511 34.8177 46.3157 34.6567 46.1665 34.4389C46.0174 34.2211 45.9428 33.9477 45.9428 33.6186V28.2386Z" fill="black"/>
<circle cx="100.5" cy="10" r="6" fill="#488FE9"/>
<path d="M77.799 35V27.7273H78.8963V34.0554H82.1918V35H77.799ZM85.6559 35.1101C85.1445 35.1101 84.6983 34.9929 84.3171 34.7585C83.936 34.5241 83.64 34.1963 83.4293 33.7749C83.2186 33.3535 83.1133 32.861 83.1133 32.2976C83.1133 31.7318 83.2186 31.237 83.4293 30.8132C83.64 30.3894 83.936 30.0604 84.3171 29.826C84.6983 29.5916 85.1445 29.4744 85.6559 29.4744C86.1673 29.4744 86.6135 29.5916 86.9947 29.826C87.3758 30.0604 87.6718 30.3894 87.8825 30.8132C88.0932 31.237 88.1985 31.7318 88.1985 32.2976C88.1985 32.861 88.0932 33.3535 87.8825 33.7749C87.6718 34.1963 87.3758 34.5241 86.9947 34.7585C86.6135 34.9929 86.1673 35.1101 85.6559 35.1101ZM85.6594 34.2188C85.9909 34.2188 86.2655 34.1312 86.4833 33.956C86.7011 33.7808 86.8621 33.5476 86.9663 33.2564C87.0728 32.9652 87.1261 32.6444 87.1261 32.294C87.1261 31.946 87.0728 31.6264 86.9663 31.3352C86.8621 31.0417 86.7011 30.8061 86.4833 30.6286C86.2655 30.451 85.9909 30.3622 85.6594 30.3622C85.3256 30.3622 85.0487 30.451 84.8285 30.6286C84.6107 30.8061 84.4485 31.0417 84.342 31.3352C84.2378 31.6264 84.1857 31.946 84.1857 32.294C84.1857 32.6444 84.2378 32.9652 84.342 33.2564C84.4485 33.5476 84.6107 33.7808 84.8285 33.956C85.0487 34.1312 85.3256 34.2188 85.6594 34.2188ZM91.6813 35.1101C91.1533 35.1101 90.6988 34.9905 90.3176 34.7514C89.9389 34.5099 89.6477 34.1773 89.4441 33.7536C89.2405 33.3298 89.1387 32.8445 89.1387 32.2976C89.1387 31.7436 89.2428 31.2547 89.4512 30.831C89.6595 30.4048 89.9531 30.0722 90.3319 29.8331C90.7106 29.594 91.1569 29.4744 91.6706 29.4744C92.0849 29.4744 92.4542 29.5514 92.7786 29.7053C93.1029 29.8568 93.3645 30.0698 93.5634 30.3445C93.7646 30.6191 93.8842 30.9399 93.9221 31.3068H92.8887C92.8319 31.0511 92.7016 30.831 92.498 30.6463C92.2968 30.4616 92.0269 30.3693 91.6884 30.3693C91.3925 30.3693 91.1332 30.4474 90.9107 30.6037C90.6905 30.7576 90.5189 30.9777 90.3958 31.2642C90.2727 31.5483 90.2111 31.8845 90.2111 32.2727C90.2111 32.6705 90.2715 33.0137 90.3922 33.3026C90.513 33.5914 90.6834 33.8151 90.9036 33.9737C91.1261 34.1323 91.3877 34.2116 91.6884 34.2116C91.8896 34.2116 92.0719 34.175 92.2353 34.1016C92.401 34.0258 92.5395 33.9181 92.6507 33.7784C92.7644 33.6387 92.8437 33.4706 92.8887 33.2741H93.9221C93.8842 33.6269 93.7694 33.9418 93.5776 34.2188C93.3858 34.4957 93.129 34.7135 92.807 34.8722C92.4874 35.0308 92.1122 35.1101 91.6813 35.1101ZM96.6449 35.1207C96.2992 35.1207 95.9867 35.0568 95.7074 34.929C95.428 34.7988 95.2067 34.6106 95.0433 34.3643C94.8823 34.1181 94.8018 33.8163 94.8018 33.4588C94.8018 33.151 94.861 32.8977 94.9794 32.6989C95.0978 32.5 95.2576 32.3426 95.4588 32.2266C95.66 32.1106 95.8849 32.023 96.1335 31.9638C96.3821 31.9046 96.6354 31.8596 96.8935 31.8288C97.2202 31.791 97.4853 31.7602 97.6889 31.7365C97.8925 31.7105 98.0405 31.669 98.1328 31.6122C98.2251 31.5554 98.2713 31.4631 98.2713 31.3352V31.3104C98.2713 31.0002 98.1837 30.7599 98.0085 30.5895C97.8357 30.419 97.5777 30.3338 97.2344 30.3338C96.8769 30.3338 96.5952 30.4131 96.3892 30.5717C96.1856 30.728 96.0447 30.902 95.9666 31.0938L94.9688 30.8665C95.0871 30.535 95.2599 30.2675 95.4872 30.0639C95.7169 29.858 95.9808 29.7088 96.2791 29.6165C96.5774 29.5218 96.8911 29.4744 97.2202 29.4744C97.438 29.4744 97.6688 29.5005 97.9126 29.5526C98.1589 29.6023 98.3885 29.6946 98.6016 29.8295C98.817 29.9645 98.9934 30.1574 99.1307 30.4084C99.268 30.657 99.3366 30.9801 99.3366 31.3778V35H98.2997V34.2543H98.2571C98.1884 34.3916 98.0855 34.5265 97.9482 34.6591C97.8108 34.7917 97.6345 34.9018 97.419 34.9893C97.2036 35.0769 96.9455 35.1207 96.6449 35.1207ZM96.8757 34.2685C97.1693 34.2685 97.4202 34.2105 97.6286 34.0945C97.8393 33.9785 97.9991 33.8269 98.108 33.6399C98.2192 33.4505 98.2749 33.2481 98.2749 33.0327V32.3295C98.237 32.3674 98.1636 32.4029 98.0547 32.4361C97.9482 32.4669 97.8262 32.4941 97.6889 32.5178C97.5516 32.5391 97.4179 32.5592 97.2876 32.5781C97.1574 32.5947 97.0485 32.6089 96.9609 32.6207C96.755 32.6468 96.5668 32.6906 96.3963 32.7521C96.2282 32.8137 96.0933 32.9025 95.9915 33.0185C95.892 33.1321 95.8423 33.2836 95.8423 33.473C95.8423 33.7358 95.9394 33.9347 96.1335 34.0696C96.3277 34.2022 96.575 34.2685 96.8757 34.2685ZM103.297 29.5455V30.3977H100.318V29.5455H103.297ZM101.117 28.2386H102.178V33.3984C102.178 33.6044 102.209 33.7595 102.271 33.8636C102.332 33.9654 102.412 34.0353 102.509 34.0732C102.608 34.1087 102.716 34.1264 102.832 34.1264C102.917 34.1264 102.992 34.1205 103.056 34.1087C103.119 34.0968 103.169 34.0874 103.205 34.0803L103.396 34.9574C103.335 34.9811 103.247 35.0047 103.134 35.0284C103.02 35.0545 102.878 35.0687 102.708 35.071C102.428 35.0758 102.168 35.026 101.926 34.9219C101.685 34.8177 101.49 34.6567 101.34 34.4389C101.191 34.2211 101.117 33.9477 101.117 33.6186V28.2386ZM104.472 35V29.5455H105.533V35H104.472ZM105.008 28.7038C104.823 28.7038 104.665 28.6423 104.532 28.5192C104.402 28.3937 104.337 28.2446 104.337 28.0717C104.337 27.8965 104.402 27.7474 104.532 27.6243C104.665 27.4988 104.823 27.4361 105.008 27.4361C105.192 27.4361 105.35 27.4988 105.48 27.6243C105.613 27.7474 105.679 27.8965 105.679 28.0717C105.679 28.2446 105.613 28.3937 105.48 28.5192C105.35 28.6423 105.192 28.7038 105.008 28.7038ZM109.259 35.1101C108.748 35.1101 108.302 34.9929 107.921 34.7585C107.539 34.5241 107.244 34.1963 107.033 33.7749C106.822 33.3535 106.717 32.861 106.717 32.2976C106.717 31.7318 106.822 31.237 107.033 30.8132C107.244 30.3894 107.539 30.0604 107.921 29.826C108.302 29.5916 108.748 29.4744 109.259 29.4744C109.771 29.4744 110.217 29.5916 110.598 29.826C110.979 30.0604 111.275 30.3894 111.486 30.8132C111.697 31.237 111.802 31.7318 111.802 32.2976C111.802 32.861 111.697 33.3535 111.486 33.7749C111.275 34.1963 110.979 34.5241 110.598 34.7585C110.217 34.9929 109.771 35.1101 109.259 35.1101ZM109.263 34.2188C109.594 34.2188 109.869 34.1312 110.087 33.956C110.305 33.7808 110.466 33.5476 110.57 33.2564C110.676 32.9652 110.73 32.6444 110.73 32.294C110.73 31.946 110.676 31.6264 110.57 31.3352C110.466 31.0417 110.305 30.8061 110.087 30.6286C109.869 30.451 109.594 30.3622 109.263 30.3622C108.929 30.3622 108.652 30.451 108.432 30.6286C108.214 30.8061 108.052 31.0417 107.945 31.3352C107.841 31.6264 107.789 31.946 107.789 32.294C107.789 32.6444 107.841 32.9652 107.945 33.2564C108.052 33.5476 108.214 33.7808 108.432 33.956C108.652 34.1312 108.929 34.2188 109.263 34.2188ZM114.049 31.7614V35H112.987V29.5455H114.006V30.4332H114.074C114.199 30.1444 114.396 29.9124 114.663 29.7372C114.933 29.562 115.273 29.4744 115.683 29.4744C116.054 29.4744 116.38 29.5526 116.659 29.7088C116.938 29.8627 117.155 30.0923 117.309 30.3977C117.463 30.7031 117.54 31.0807 117.54 31.5305V35H116.478V31.6584C116.478 31.263 116.375 30.9541 116.169 30.7315C115.963 30.5066 115.68 30.3942 115.32 30.3942C115.074 30.3942 114.855 30.4474 114.663 30.554C114.474 30.6605 114.324 30.8168 114.212 31.0227C114.103 31.2263 114.049 31.4725 114.049 31.7614ZM123.051 30.8771L122.089 31.0476C122.049 30.9245 121.985 30.8073 121.897 30.696C121.812 30.5848 121.696 30.4936 121.549 30.4226C121.402 30.3516 121.219 30.3161 120.999 30.3161C120.698 30.3161 120.447 30.3835 120.246 30.5185C120.045 30.651 119.944 30.8227 119.944 31.0334C119.944 31.2157 120.011 31.3625 120.146 31.4737C120.281 31.585 120.499 31.6761 120.8 31.7472L121.666 31.946C122.168 32.062 122.542 32.2408 122.788 32.4822C123.035 32.7237 123.158 33.0374 123.158 33.4233C123.158 33.75 123.063 34.0412 122.874 34.2969C122.687 34.5502 122.425 34.7491 122.089 34.8935C121.755 35.0379 121.368 35.1101 120.928 35.1101C120.317 35.1101 119.818 34.9799 119.433 34.7195C119.047 34.4567 118.81 34.0838 118.722 33.6009L119.749 33.4446C119.813 33.7121 119.944 33.9145 120.143 34.0518C120.342 34.1868 120.601 34.2543 120.92 34.2543C121.268 34.2543 121.547 34.1821 121.755 34.0376C121.963 33.8909 122.067 33.7121 122.067 33.5014C122.067 33.331 122.004 33.1877 121.876 33.0717C121.75 32.9557 121.557 32.8681 121.297 32.8089L120.374 32.6065C119.865 32.4905 119.488 32.3059 119.244 32.0526C119.003 31.7992 118.882 31.4785 118.882 31.0902C118.882 30.7682 118.972 30.4865 119.152 30.245C119.332 30.0036 119.58 29.8153 119.898 29.6804C120.215 29.5431 120.578 29.4744 120.988 29.4744C121.577 29.4744 122.041 29.6023 122.38 29.858C122.719 30.1113 122.942 30.451 123.051 30.8771Z" fill="black"/>
<circle cx="172" cy="10" r="6" fill="#488FE9"/>
<path d="M155.799 35V27.7273H158.391C158.957 27.7273 159.426 27.8303 159.798 28.0362C160.169 28.2422 160.447 28.5239 160.632 28.8814C160.817 29.2365 160.909 29.6366 160.909 30.0817C160.909 30.5291 160.816 30.9316 160.629 31.2891C160.444 31.6442 160.165 31.9259 159.79 32.1342C159.419 32.3402 158.951 32.4432 158.388 32.4432H156.605V31.5128H158.288C158.646 31.5128 158.936 31.4512 159.158 31.3281C159.381 31.2027 159.544 31.0322 159.648 30.8168C159.753 30.6013 159.805 30.3563 159.805 30.0817C159.805 29.8071 159.753 29.5632 159.648 29.3501C159.544 29.1371 159.38 28.9702 159.155 28.8494C158.932 28.7287 158.639 28.6683 158.274 28.6683H156.896V35H155.799ZM162.11 35V29.5455H163.137V30.4119H163.193C163.293 30.1184 163.468 29.8875 163.719 29.7195C163.972 29.549 164.259 29.4638 164.578 29.4638C164.645 29.4638 164.723 29.4661 164.813 29.4709C164.905 29.4756 164.977 29.4815 165.029 29.4886V30.5043C164.987 30.4924 164.911 30.4794 164.802 30.4652C164.693 30.4486 164.584 30.4403 164.475 30.4403C164.224 30.4403 164.001 30.4936 163.804 30.6001C163.61 30.7043 163.456 30.8499 163.343 31.0369C163.229 31.2216 163.172 31.4323 163.172 31.669V35H162.11ZM165.948 35V29.5455H167.01V35H165.948ZM166.484 28.7038C166.3 28.7038 166.141 28.6423 166.009 28.5192C165.878 28.3937 165.813 28.2446 165.813 28.0717C165.813 27.8965 165.878 27.7474 166.009 27.6243C166.141 27.4988 166.3 27.4361 166.484 27.4361C166.669 27.4361 166.826 27.4988 166.957 27.6243C167.089 27.7474 167.156 27.8965 167.156 28.0717C167.156 28.2446 167.089 28.3937 166.957 28.5192C166.826 28.6423 166.669 28.7038 166.484 28.7038ZM170.736 35.1101C170.208 35.1101 169.753 34.9905 169.372 34.7514C168.994 34.5099 168.702 34.1773 168.499 33.7536C168.295 33.3298 168.193 32.8445 168.193 32.2976C168.193 31.7436 168.298 31.2547 168.506 30.831C168.714 30.4048 169.008 30.0722 169.387 29.8331C169.765 29.594 170.212 29.4744 170.725 29.4744C171.14 29.4744 171.509 29.5514 171.833 29.7053C172.158 29.8568 172.419 30.0698 172.618 30.3445C172.819 30.6191 172.939 30.9399 172.977 31.3068H171.943C171.887 31.0511 171.756 30.831 171.553 30.6463C171.352 30.4616 171.082 30.3693 170.743 30.3693C170.447 30.3693 170.188 30.4474 169.965 30.6037C169.745 30.7576 169.574 30.9777 169.45 31.2642C169.327 31.5483 169.266 31.8845 169.266 32.2727C169.266 32.6705 169.326 33.0137 169.447 33.3026C169.568 33.5914 169.738 33.8151 169.958 33.9737C170.181 34.1323 170.442 34.2116 170.743 34.2116C170.944 34.2116 171.127 34.175 171.29 34.1016C171.456 34.0258 171.594 33.9181 171.705 33.7784C171.819 33.6387 171.898 33.4706 171.943 33.2741H172.977C172.939 33.6269 172.824 33.9418 172.632 34.2188C172.441 34.4957 172.184 34.7135 171.862 34.8722C171.542 35.0308 171.167 35.1101 170.736 35.1101ZM174.112 35V29.5455H175.174V35H174.112ZM174.648 28.7038C174.464 28.7038 174.305 28.6423 174.173 28.5192C174.042 28.3937 173.977 28.2446 173.977 28.0717C173.977 27.8965 174.042 27.7474 174.173 27.6243C174.305 27.4988 174.464 27.4361 174.648 27.4361C174.833 27.4361 174.991 27.4988 175.121 27.6243C175.253 27.7474 175.32 27.8965 175.32 28.0717C175.32 28.2446 175.253 28.3937 175.121 28.5192C174.991 28.6423 174.833 28.7038 174.648 28.7038ZM177.664 31.7614V35H176.602V29.5455H177.622V30.4332H177.689C177.815 30.1444 178.011 29.9124 178.279 29.7372C178.548 29.562 178.888 29.4744 179.298 29.4744C179.669 29.4744 179.995 29.5526 180.274 29.7088C180.554 29.8627 180.77 30.0923 180.924 30.3977C181.078 30.7031 181.155 31.0807 181.155 31.5305V35H180.093V31.6584C180.093 31.263 179.99 30.9541 179.784 30.7315C179.578 30.5066 179.295 30.3942 178.936 30.3942C178.689 30.3942 178.47 30.4474 178.279 30.554C178.089 30.6605 177.939 30.8168 177.828 31.0227C177.719 31.2263 177.664 31.4725 177.664 31.7614ZM184.866 37.1591C184.433 37.1591 184.06 37.1023 183.747 36.9886C183.437 36.875 183.184 36.7247 182.987 36.5376C182.791 36.3506 182.644 36.1458 182.547 35.9233L183.46 35.5469C183.524 35.651 183.609 35.7611 183.715 35.8771C183.824 35.9955 183.971 36.0961 184.156 36.179C184.343 36.2618 184.583 36.3033 184.877 36.3033C185.279 36.3033 185.612 36.205 185.874 36.0085C186.137 35.8144 186.269 35.5043 186.269 35.0781V34.0057H186.201C186.137 34.1217 186.045 34.2507 185.924 34.3928C185.806 34.5348 185.642 34.6579 185.434 34.7621C185.226 34.8662 184.955 34.9183 184.621 34.9183C184.19 34.9183 183.802 34.8177 183.456 34.6165C183.113 34.4129 182.841 34.1134 182.639 33.718C182.441 33.3203 182.341 32.8314 182.341 32.2514C182.341 31.6714 182.439 31.1742 182.636 30.7599C182.835 30.3456 183.107 30.0284 183.453 29.8082C183.798 29.5857 184.19 29.4744 184.628 29.4744C184.967 29.4744 185.24 29.5312 185.448 29.6449C185.657 29.7562 185.819 29.8864 185.935 30.0355C186.053 30.1847 186.144 30.3161 186.208 30.4297H186.286V29.5455H187.327V35.1207C187.327 35.5895 187.218 35.9742 187 36.2749C186.782 36.5755 186.488 36.7981 186.116 36.9425C185.747 37.0869 185.33 37.1591 184.866 37.1591ZM184.855 34.0376C185.161 34.0376 185.419 33.9666 185.629 33.8246C185.843 33.6802 186.003 33.4742 186.112 33.2067C186.224 32.9368 186.279 32.6136 186.279 32.2372C186.279 31.8703 186.225 31.5471 186.116 31.2678C186.007 30.9884 185.847 30.7706 185.637 30.6143C185.426 30.4557 185.165 30.3764 184.855 30.3764C184.536 30.3764 184.269 30.4593 184.056 30.625C183.843 30.7884 183.682 31.0109 183.573 31.2926C183.467 31.5743 183.414 31.8892 183.414 32.2372C183.414 32.5947 183.468 32.9084 183.577 33.1783C183.686 33.4482 183.847 33.6589 184.06 33.8104C184.275 33.9619 184.54 34.0376 184.855 34.0376Z" fill="black"/>
<circle cx="243.5" cy="10" r="6" fill="#488FE9"/>
<path d="M220.913 35H219.749L222.366 27.7273H223.634L226.251 35H225.086L223.03 29.0483H222.973L220.913 35ZM221.109 32.152H224.887V33.0753H221.109V32.152ZM229.42 29.5455V30.3977H226.441V29.5455H229.42ZM227.24 28.2386H228.301V33.3984C228.301 33.6044 228.332 33.7595 228.394 33.8636C228.455 33.9654 228.535 34.0353 228.632 34.0732C228.731 34.1087 228.839 34.1264 228.955 34.1264C229.04 34.1264 229.115 34.1205 229.179 34.1087C229.243 34.0968 229.292 34.0874 229.328 34.0803L229.52 34.9574C229.458 34.9811 229.37 35.0047 229.257 35.0284C229.143 35.0545 229.001 35.0687 228.831 35.071C228.551 35.0758 228.291 35.026 228.049 34.9219C227.808 34.8177 227.613 34.6567 227.463 34.4389C227.314 34.2211 227.24 33.9477 227.24 33.6186V28.2386ZM233.141 29.5455V30.3977H230.161V29.5455H233.141ZM230.96 28.2386H232.022V33.3984C232.022 33.6044 232.053 33.7595 232.115 33.8636C232.176 33.9654 232.255 34.0353 232.352 34.0732C232.452 34.1087 232.56 34.1264 232.676 34.1264C232.761 34.1264 232.835 34.1205 232.899 34.1087C232.963 34.0968 233.013 34.0874 233.048 34.0803L233.24 34.9574C233.179 34.9811 233.091 35.0047 232.977 35.0284C232.864 35.0545 232.722 35.0687 232.551 35.071C232.272 35.0758 232.012 35.026 231.77 34.9219C231.529 34.8177 231.333 34.6567 231.184 34.4389C231.035 34.2211 230.96 33.9477 230.96 33.6186V28.2386ZM234.315 35V29.5455H235.342V30.4119H235.398C235.498 30.1184 235.673 29.8875 235.924 29.7195C236.177 29.549 236.464 29.4638 236.783 29.4638C236.85 29.4638 236.928 29.4661 237.018 29.4709C237.11 29.4756 237.182 29.4815 237.234 29.4886V30.5043C237.192 30.4924 237.116 30.4794 237.007 30.4652C236.898 30.4486 236.789 30.4403 236.68 30.4403C236.429 30.4403 236.206 30.4936 236.009 30.6001C235.815 30.7043 235.661 30.8499 235.548 31.0369C235.434 31.2216 235.377 31.4323 235.377 31.669V35H234.315ZM238.153 35V29.5455H239.215V35H238.153ZM238.689 28.7038C238.505 28.7038 238.346 28.6423 238.214 28.5192C238.083 28.3937 238.018 28.2446 238.018 28.0717C238.018 27.8965 238.083 27.7474 238.214 27.6243C238.346 27.4988 238.505 27.4361 238.689 27.4361C238.874 27.4361 239.032 27.4988 239.162 27.6243C239.294 27.7474 239.361 27.8965 239.361 28.0717C239.361 28.2446 239.294 28.3937 239.162 28.5192C239.032 28.6423 238.874 28.7038 238.689 28.7038ZM240.729 35V27.7273H241.79V30.4297H241.854C241.916 30.3161 242.005 30.1847 242.121 30.0355C242.237 29.8864 242.398 29.7562 242.604 29.6449C242.81 29.5312 243.082 29.4744 243.42 29.4744C243.861 29.4744 244.254 29.5857 244.599 29.8082C244.945 30.0308 245.216 30.3516 245.413 30.7706C245.612 31.1896 245.711 31.6939 245.711 32.2834C245.711 32.8729 245.613 33.3783 245.416 33.7997C245.22 34.2187 244.95 34.5419 244.607 34.7692C244.263 34.9941 243.871 35.1065 243.431 35.1065C243.1 35.1065 242.829 35.0509 242.618 34.9396C242.41 34.8284 242.246 34.6982 242.128 34.549C242.009 34.3999 241.918 34.2673 241.854 34.1513H241.766V35H240.729ZM241.769 32.2727C241.769 32.6562 241.825 32.9924 241.936 33.2812C242.047 33.5701 242.208 33.7962 242.419 33.9595C242.63 34.1205 242.888 34.201 243.193 34.201C243.51 34.201 243.776 34.117 243.989 33.9489C244.202 33.7784 244.363 33.5476 244.472 33.2564C244.583 32.9652 244.638 32.6373 244.638 32.2727C244.638 31.9129 244.584 31.5897 244.475 31.3033C244.369 31.0168 244.208 30.7907 243.992 30.625C243.779 30.4593 243.513 30.3764 243.193 30.3764C242.885 30.3764 242.625 30.4557 242.412 30.6143C242.201 30.773 242.041 30.9943 241.933 31.2784C241.824 31.5625 241.769 31.8939 241.769 32.2727ZM250.358 32.7379V29.5455H251.424V35H250.38V34.0554H250.323C250.198 34.3466 249.996 34.5893 249.719 34.7834C249.445 34.9751 249.103 35.071 248.693 35.071C248.343 35.071 248.032 34.9941 247.763 34.8402C247.495 34.6839 247.284 34.4531 247.131 34.1477C246.979 33.8423 246.903 33.4647 246.903 33.0149V29.5455H247.965V32.8871C247.965 33.2588 248.068 33.5547 248.274 33.7749C248.48 33.995 248.747 34.1051 249.077 34.1051C249.275 34.1051 249.473 34.0554 249.67 33.956C249.868 33.8565 250.033 33.7062 250.163 33.505C250.296 33.3037 250.361 33.0481 250.358 32.7379ZM255.397 29.5455V30.3977H252.417V29.5455H255.397ZM253.216 28.2386H254.278V33.3984C254.278 33.6044 254.309 33.7595 254.37 33.8636C254.432 33.9654 254.511 34.0353 254.608 34.0732C254.708 34.1087 254.815 34.1264 254.931 34.1264C255.017 34.1264 255.091 34.1205 255.155 34.1087C255.219 34.0968 255.269 34.0874 255.304 34.0803L255.496 34.9574C255.435 34.9811 255.347 35.0047 255.233 35.0284C255.12 35.0545 254.978 35.0687 254.807 35.071C254.528 35.0758 254.267 35.026 254.026 34.9219C253.784 34.8177 253.589 34.6567 253.44 34.4389C253.291 34.2211 253.216 33.9477 253.216 33.6186V28.2386ZM258.863 35.1101C258.326 35.1101 257.863 34.9953 257.475 34.7656C257.089 34.5336 256.791 34.2081 256.58 33.7891C256.372 33.3677 256.268 32.8741 256.268 32.3082C256.268 31.7495 256.372 31.2571 256.58 30.831C256.791 30.4048 257.084 30.0722 257.461 29.8331C257.84 29.594 258.282 29.4744 258.789 29.4744C259.097 29.4744 259.395 29.5253 259.684 29.6271C259.973 29.7289 260.232 29.8887 260.461 30.1065C260.691 30.3243 260.872 30.6072 261.005 30.9553C261.137 31.3009 261.204 31.7211 261.204 32.2159V32.5923H256.868V31.7969H260.163C260.163 31.5175 260.106 31.2701 259.993 31.0547C259.879 30.8369 259.719 30.6652 259.513 30.5398C259.31 30.4143 259.071 30.3516 258.796 30.3516C258.498 30.3516 258.237 30.425 258.015 30.5717C257.795 30.7161 257.624 30.9055 257.503 31.1399C257.385 31.3719 257.326 31.6241 257.326 31.8963V32.5178C257.326 32.8823 257.39 33.1925 257.518 33.4482C257.648 33.7038 257.829 33.8991 258.061 34.0341C258.293 34.1667 258.564 34.233 258.874 34.233C259.075 34.233 259.259 34.2045 259.425 34.1477C259.59 34.0885 259.733 34.0009 259.854 33.8849C259.975 33.7689 260.067 33.6257 260.131 33.4553L261.136 33.6364C261.056 33.9323 260.911 34.1915 260.703 34.4141C260.497 34.6342 260.238 34.8059 259.925 34.929C259.615 35.0497 259.261 35.1101 258.863 35.1101ZM266.469 30.8771L265.507 31.0476C265.467 30.9245 265.403 30.8073 265.315 30.696C265.23 30.5848 265.114 30.4936 264.967 30.4226C264.82 30.3516 264.637 30.3161 264.417 30.3161C264.116 30.3161 263.865 30.3835 263.664 30.5185C263.462 30.651 263.362 30.8227 263.362 31.0334C263.362 31.2157 263.429 31.3625 263.564 31.4737C263.699 31.585 263.917 31.6761 264.218 31.7472L265.084 31.946C265.586 32.062 265.96 32.2408 266.206 32.4822C266.453 32.7237 266.576 33.0374 266.576 33.4233C266.576 33.75 266.481 34.0412 266.292 34.2969C266.105 34.5502 265.843 34.7491 265.507 34.8935C265.173 35.0379 264.786 35.1101 264.346 35.1101C263.735 35.1101 263.236 34.9799 262.85 34.7195C262.465 34.4567 262.228 34.0838 262.14 33.6009L263.167 33.4446C263.23 33.7121 263.362 33.9145 263.561 34.0518C263.76 34.1868 264.019 34.2543 264.338 34.2543C264.686 34.2543 264.965 34.1821 265.173 34.0376C265.381 33.8909 265.485 33.7121 265.485 33.5014C265.485 33.331 265.422 33.1877 265.294 33.0717C265.168 32.9557 264.975 32.8681 264.715 32.8089L263.792 32.6065C263.283 32.4905 262.906 32.3059 262.662 32.0526C262.421 31.7992 262.3 31.4785 262.3 31.0902C262.3 30.7682 262.39 30.4865 262.57 30.245C262.75 30.0036 262.998 29.8153 263.316 29.6804C263.633 29.5431 263.996 29.4744 264.406 29.4744C264.995 29.4744 265.459 29.6023 265.798 29.858C266.136 30.1113 266.36 30.451 266.469 30.8771Z" fill="black"/>
<circle cx="314.5" cy="10" r="6" fill="#DDDDDD"/>
<path d="M304.896 27.7273V35H303.799V27.7273H304.896ZM312.535 30.0923H311.427C311.384 29.8556 311.305 29.6473 311.189 29.4673C311.073 29.2874 310.931 29.1347 310.763 29.0092C310.595 28.8838 310.406 28.7891 310.198 28.7251C309.992 28.6612 309.773 28.6293 309.541 28.6293C309.122 28.6293 308.747 28.7346 308.415 28.9453C308.086 29.156 307.826 29.465 307.634 29.8722C307.445 30.2794 307.35 30.7765 307.35 31.3636C307.35 31.9555 307.445 32.455 307.634 32.8622C307.826 33.2694 308.088 33.5772 308.419 33.7855C308.75 33.9938 309.123 34.098 309.538 34.098C309.767 34.098 309.985 34.0672 310.191 34.0057C310.399 33.9418 310.588 33.8482 310.756 33.7251C310.924 33.602 311.066 33.4517 311.182 33.2741C311.3 33.0942 311.382 32.8883 311.427 32.6562L312.535 32.6598C312.476 33.0173 312.361 33.3464 312.19 33.647C312.022 33.9453 311.806 34.2034 311.54 34.4212C311.278 34.6366 310.977 34.8035 310.638 34.9219C310.3 35.0402 309.931 35.0994 309.531 35.0994C308.901 35.0994 308.34 34.9503 307.847 34.652C307.355 34.3513 306.967 33.9216 306.683 33.3629C306.401 32.8042 306.26 32.1378 306.26 31.3636C306.26 30.5871 306.402 29.9207 306.686 29.3643C306.97 28.8056 307.358 28.3771 307.851 28.0788C308.343 27.7782 308.903 27.6278 309.531 27.6278C309.916 27.6278 310.276 27.6835 310.61 27.7947C310.946 27.9036 311.248 28.0646 311.516 28.2777C311.783 28.4884 312.004 28.7464 312.18 29.0518C312.355 29.3549 312.473 29.7017 312.535 30.0923ZM314.413 35H313.249L315.866 27.7273H317.134L319.751 35H318.586L316.53 29.0483H316.473L314.413 35ZM314.609 32.152H318.387V33.0753H314.609V32.152ZM320.801 35V27.7273H321.898V34.0554H325.194V35H320.801Z" fill="black"/>
<circle cx="315" cy="10" r="8.5" fill="white" stroke="#488FE9"/>
<circle cx="315" cy="10" r="6.75" stroke="#488FE9" stroke-width="2.5"/>
</svg>
